<?xml version="1.0" encoding="UTF-8"?>
<!DOCTYPE svg PUBLIC "-//W3C//DTD SVG 1.1//EN" "http://www.w3.org/Graphics/SVG/1.1/DTD/svg11.dtd">
<!-- Creator: CorelDRAW X5 -->
<svg xmlns="http://www.w3.org/2000/svg" xml:space="preserve" width="186.615mm" height="40.64mm" style="shape-rendering:geometricPrecision; text-rendering:geometricPrecision; image-rendering:optimizeQuality; fill-rule:evenodd; clip-rule:evenodd"
viewBox="0 0 18662 4064"
 xmlns:xlink="http://www.w3.org/1999/xlink">
 <defs>
  <style type="text/css">
   <![CDATA[
    .fil0 {fill:#ED3237}
   ]]>
  </style>
 </defs>
 <g id="Layer_x0020_1">
  <metadata id="CorelCorpID_0Corel-Layer"/>
  <polygon class="fil0" points="7147,1073 8744,1073 7958,3890 9064,3890 9850,1073 11139,1073 11436,738 10392,738 10529,582 11576,582 11725,415 10653,415 10791,193 11921,193 12093,0 7639,0 "/>
  <polygon class="fil0" points="3023,3928 0,3928 464,3178 2203,3189 2994,29 4002,29 3195,3189 "/>
  <path class="fil0" d="M7721 3888l-981 0 -168 -187c-468,280 -1027,421 -1584,339 -685,-135 -1097,-551 -1039,-1231 91,-474 300,-871 607,-1199 -343,-688 -217,-1160 3,-1588l2371 0 -396 904c-307,-620 -1280,-464 -1242,366l1161 1284c99,-122 200,-400 300,-716l729 363c-110,334 -236,667 -408,945l3 3 645 717 0 0zm-1728 -832l-899 -934c-933,676 13,1779 899,934z"/>
  <path class="fil0" d="M11550 2416c0,5 0,13 -1,25 -1,11 -3,24 -5,38 -3,13 -5,28 -9,44 -4,16 -8,29 -15,42 -5,12 -12,23 -20,32 -8,8 -17,12 -27,12l-529 0 -73 362 449 0c11,0 19,4 23,11 5,8 8,19 8,32 0,7 -1,15 -1,25 -1,11 -4,24 -7,38 -1,13 -4,28 -8,42 -4,15 -9,28 -15,40 -5,12 -13,23 -20,30 -8,7 -16,11 -25,11l-449 0 -84 417 535 0c9,0 17,4 21,13 4,7 7,19 7,34 0,5 0,13 -1,25 0,12 -3,25 -5,38 -3,15 -5,29 -9,44 -4,15 -8,28 -15,41 -5,12 -12,23 -20,30 -8,7 -16,11 -25,11l-746 0c-12,0 -23,-1 -33,-5 -11,-3 -19,-9 -24,-17 -7,-8 -12,-17 -13,-29 -3,-12 -3,-27 0,-44l258 -1292c7,-33 21,-58 42,-73 20,-15 44,-23 69,-23l737 0c20,0 29,15 29,44l0 0zm847 675l228 648c8,28 13,49 15,66 1,16 -4,29 -15,37 -11,9 -28,15 -52,17 -25,3 -58,3 -102,3 -32,0 -56,0 -74,-1 -19,-1 -32,-4 -42,-8 -11,-4 -17,-8 -21,-15 -5,-5 -8,-13 -12,-23l-180 -539 -380 539c-7,9 -13,17 -21,23 -7,7 -17,11 -30,15 -13,4 -32,7 -53,8 -23,1 -50,1 -85,1 -40,0 -72,0 -94,-3 -23,-3 -38,-8 -45,-16 -7,-8 -7,-21 1,-37 7,-16 20,-37 40,-64l488 -653 -207 -603c-8,-27 -13,-48 -15,-65 -1,-16 4,-28 15,-36 9,-9 27,-15 52,-16 24,-3 58,-4 101,-4 32,0 58,1 77,3 19,1 33,4 44,8 11,4 19,9 23,16 5,7 9,16 12,27l158 484 347 -490c5,-8 12,-16 20,-23 7,-5 16,-11 28,-15 13,-3 29,-5 49,-7 20,-1 46,-3 80,-3 42,0 76,1 99,4 24,1 38,7 46,16 7,8 7,20 0,36 -7,17 -20,38 -38,65l-453 604 0 0zm1666 -354c0,42 -5,87 -15,134 -9,46 -25,93 -46,137 -21,45 -49,87 -83,127 -34,40 -76,76 -125,107 -49,30 -107,56 -172,73 -65,19 -140,27 -228,27l-155 0 -95 474c-1,8 -5,15 -11,21 -7,5 -16,11 -29,15 -13,4 -29,7 -49,8 -20,3 -45,3 -73,3 -29,0 -52,0 -72,-3 -19,-1 -33,-4 -44,-8 -11,-4 -17,-9 -21,-15 -4,-5 -5,-13 -3,-21l268 -1335c7,-36 21,-64 45,-81 23,-19 50,-28 83,-28l325 0c40,0 76,1 106,4 32,3 62,8 93,13 46,9 89,24 126,42 37,20 68,44 94,72 27,29 46,62 60,102 13,38 21,82 21,131l0 0zm-317 33c0,-36 -9,-68 -27,-95 -17,-27 -45,-45 -81,-56 -17,-5 -34,-9 -54,-11 -20,-3 -42,-3 -66,-3l-133 0 -101 504 138 0c44,0 81,-5 111,-16 32,-9 58,-24 82,-40 24,-17 44,-37 60,-60 17,-24 30,-48 41,-73 9,-25 17,-50 21,-77 5,-25 8,-50 8,-74l0 0zm1584 -74c0,50 -7,98 -20,146 -13,49 -34,94 -64,137 -29,44 -68,82 -113,117 -46,34 -103,62 -170,82 37,15 68,44 93,86 25,44 46,102 62,178l57 301c4,17 7,32 9,45 3,13 4,25 4,34 0,7 -3,13 -8,19 -5,5 -13,9 -28,13 -13,4 -30,7 -53,8 -23,1 -52,1 -86,1 -32,0 -58,0 -77,-3 -19,-1 -34,-4 -45,-9 -11,-4 -17,-9 -20,-16 -4,-7 -7,-15 -8,-24l-57 -329c-5,-38 -15,-72 -25,-101 -9,-29 -24,-53 -40,-73 -16,-20 -36,-34 -58,-44 -24,-9 -52,-15 -85,-15l-95 0 -113 566c0,8 -4,15 -11,21 -7,5 -16,11 -28,15 -13,4 -29,7 -49,8 -20,3 -45,3 -74,3 -29,0 -52,0 -70,-3 -20,-1 -34,-4 -45,-8 -11,-4 -17,-9 -21,-15 -4,-5 -5,-13 -3,-21l270 -1348c7,-33 20,-58 40,-73 21,-15 46,-23 74,-23l398 0c70,0 133,7 190,20 56,13 103,33 143,60 41,27 72,61 93,101 21,41 32,89 32,143zm-323 57c0,-21 -4,-41 -12,-60 -7,-19 -19,-34 -34,-49 -16,-13 -37,-23 -62,-30 -27,-8 -57,-11 -93,-11l-171 0 -85 421 144 0c57,0 106,-8 146,-24 40,-17 72,-38 97,-65 24,-25 42,-54 53,-86 12,-32 17,-64 17,-97zm1551 -337c0,5 0,13 -1,25 -1,11 -4,24 -5,38 -3,13 -5,28 -9,44 -4,16 -9,29 -15,42 -5,12 -13,23 -21,32 -8,8 -16,12 -25,12l-529 0 -73 362 449 0c11,0 19,4 23,11 5,8 7,19 7,32 0,7 0,15 -1,25 -1,11 -3,24 -5,38 -1,13 -5,28 -9,42 -4,15 -8,28 -15,40 -5,12 -12,23 -20,30 -8,7 -16,11 -25,11l-449 0 -83 417 537 0c9,0 16,4 20,13 5,7 8,19 8,34 0,5 -1,13 -1,25 -1,12 -3,25 -5,38 -3,15 -5,29 -9,44 -4,15 -9,28 -15,41 -5,12 -12,23 -20,30 -8,7 -16,11 -27,11l-745 0c-12,0 -24,-1 -33,-5 -11,-3 -19,-9 -25,-17 -7,-8 -11,-17 -13,-29 -3,-12 -1,-27 1,-44l258 -1292c7,-33 20,-58 41,-73 21,-15 45,-23 70,-23l736 0c20,0 30,15 30,44l0 0zm1014 70c0,7 -1,16 -3,28 -1,11 -3,24 -5,37 -1,13 -5,28 -8,42 -4,13 -8,27 -13,38 -5,12 -11,21 -17,29 -7,8 -13,12 -20,12 -11,0 -24,-5 -40,-15 -16,-9 -36,-20 -60,-32 -24,-11 -50,-21 -82,-30 -30,-11 -66,-15 -106,-15 -41,0 -76,5 -105,17 -28,11 -52,27 -70,45 -19,19 -32,40 -40,64 -9,23 -13,46 -13,70 0,27 7,52 20,73 15,21 32,40 56,58 23,17 49,34 78,52 29,17 60,34 90,53 29,17 60,38 89,60 29,23 56,46 80,76 23,29 41,61 54,98 13,37 21,81 21,129 0,72 -15,138 -44,200 -29,61 -70,114 -123,160 -54,45 -118,81 -194,106 -76,27 -159,40 -250,40 -50,0 -95,-4 -138,-13 -41,-7 -80,-17 -111,-29 -32,-11 -60,-23 -81,-36 -23,-13 -40,-25 -50,-36 -11,-12 -16,-29 -16,-52 0,-7 1,-16 3,-28 1,-13 4,-27 7,-40 3,-15 5,-29 9,-44 4,-15 8,-29 13,-41 5,-12 12,-23 19,-30 7,-7 13,-11 20,-11 13,0 29,5 46,17 19,12 41,25 68,40 27,13 58,28 95,40 36,12 80,19 131,19 45,0 85,-7 119,-17 34,-12 62,-28 85,-48 24,-20 41,-42 53,-69 12,-25 17,-54 17,-85 0,-29 -7,-54 -20,-74 -15,-23 -32,-41 -54,-60 -23,-19 -49,-36 -77,-52 -29,-16 -58,-32 -87,-50 -30,-19 -60,-38 -87,-60 -29,-21 -54,-46 -77,-76 -23,-29 -41,-61 -54,-99 -15,-37 -21,-81 -21,-130 0,-69 13,-133 41,-191 28,-57 66,-107 114,-148 49,-42 107,-74 175,-98 68,-23 143,-34 224,-34 38,0 76,3 110,8 34,7 66,13 94,23 28,8 53,19 73,29 20,11 33,20 41,27 8,8 13,16 17,23 3,9 5,19 5,30l0 0zm1091 0c0,7 0,16 -1,28 -1,11 -3,24 -5,37 -3,13 -5,28 -9,42 -3,13 -8,27 -12,38 -5,12 -12,21 -17,29 -7,8 -13,12 -20,12 -11,0 -24,-5 -41,-15 -16,-9 -36,-20 -58,-32 -24,-11 -50,-21 -82,-30 -32,-11 -66,-15 -106,-15 -41,0 -77,5 -105,17 -29,11 -52,27 -70,45 -19,19 -32,40 -41,64 -8,23 -13,46 -13,70 0,27 8,52 21,73 13,21 32,40 56,58 23,17 49,34 78,52 29,17 60,34 89,53 30,17 61,38 90,60 29,23 56,46 78,76 24,29 42,61 56,98 13,37 21,81 21,129 0,72 -15,138 -44,200 -29,61 -70,114 -123,160 -54,45 -118,81 -193,106 -76,27 -159,40 -252,40 -49,0 -94,-4 -137,-13 -42,-7 -80,-17 -111,-29 -32,-11 -60,-23 -82,-36 -21,-13 -38,-25 -49,-36 -11,-12 -16,-29 -16,-52 0,-7 1,-16 3,-28 1,-13 4,-27 7,-40 3,-15 5,-29 9,-44 4,-15 8,-29 13,-41 5,-12 12,-23 17,-30 7,-7 13,-11 21,-11 13,0 28,5 46,17 19,12 40,25 68,40 27,13 58,28 95,40 36,12 80,19 131,19 45,0 85,-7 119,-17 33,-12 62,-28 85,-48 24,-20 41,-42 52,-69 13,-25 19,-54 19,-85 0,-29 -7,-54 -21,-74 -13,-23 -30,-41 -54,-60 -21,-19 -48,-36 -76,-52 -29,-16 -58,-32 -89,-50 -29,-19 -58,-38 -87,-60 -28,-21 -54,-46 -76,-76 -24,-29 -41,-61 -54,-99 -15,-37 -21,-81 -21,-130 0,-69 13,-133 41,-191 28,-57 65,-107 114,-148 49,-42 107,-74 175,-98 68,-23 143,-34 224,-34 38,0 76,3 110,8 34,7 65,13 94,23 28,8 53,19 73,29 20,11 33,20 41,27 8,8 13,16 17,23 3,9 4,19 4,30l0 0z"/>
 </g>
</svg>
