<?xml version="1.0" encoding="UTF-8"?>
<svg version="1.1" xmlns="http://www.w3.org/2000/svg" width="1447" height="253">
<path d="M0 0 C1.58995789 -0.00422974 1.58995789 -0.00422974 3.21203613 -0.00854492 C4.95607727 -0.00550858 4.95607727 -0.00550858 6.73535156 -0.00241089 C8.5722052 -0.00503937 8.5722052 -0.00503937 10.44616699 -0.00772095 C13.8056094 -0.01137172 17.16499034 -0.01051074 20.52442932 -0.00734186 C24.03842248 -0.00481197 27.55241299 -0.00715756 31.06640625 -0.00872803 C36.96777824 -0.01054788 42.86913772 -0.00814824 48.77050781 -0.00338745 C55.59548826 0.00205482 62.42043883 0.00029203 69.24541855 -0.00521386 C75.10280488 -0.00975023 80.96018221 -0.01039296 86.81756973 -0.00777519 C90.31698344 -0.00621531 93.81638309 -0.00601077 97.3157959 -0.00931168 C101.21607629 -0.01273365 105.11632315 -0.00799206 109.01660156 -0.00241089 C110.17929565 -0.00443512 111.34198975 -0.00645935 112.53991699 -0.00854492 C113.59988892 -0.0057251 114.65986084 -0.00290527 115.75195312 0 C116.67445862 0.00037703 117.59696411 0.00075405 118.54742432 0.0011425 C120.87597656 0.12698364 120.87597656 0.12698364 123.87597656 1.12698364 C123.38303352 11.5467796 121.94460973 21.6421326 120.21972656 31.91506958 C119.87223669 34.15104843 119.60085268 36.3866892 119.34472656 38.63479614 C118.87597656 42.12698364 118.87597656 42.12698364 117.87597656 43.12698364 C117.58878571 45.11025453 117.3603774 47.10210084 117.15722656 49.09573364 C117.02960938 50.30616333 116.90199219 51.51659302 116.77050781 52.76370239 C116.57521484 54.67602661 116.57521484 54.67602661 116.37597656 56.62698364 C116.11956231 59.13781227 115.85935662 61.64825762 115.59472656 64.15823364 C115.42360352 65.83755981 115.42360352 65.83755981 115.24902344 67.55081177 C114.87597656 70.12698364 114.87597656 70.12698364 113.87597656 71.12698364 C113.64974135 72.61136173 113.48184692 74.1047579 113.34082031 75.59963989 C113.21030273 76.94832153 113.21030273 76.94832153 113.07714844 78.32424927 C112.94663086 79.74254028 112.94663086 79.74254028 112.81347656 81.18948364 C112.6771582 82.61357544 112.6771582 82.61357544 112.53808594 84.06643677 C112.31341158 86.41960499 112.09289475 88.77308983 111.87597656 91.12698364 C115.38656583 89.52287433 116.20303951 88.57090535 117.87597656 85.12698364 C119.51702635 83.37398204 121.20971991 81.66855481 122.93847656 80.00198364 C126.3405114 76.88592599 126.3405114 76.88592599 128.87597656 73.12698364 C129.53597656 73.12698364 130.19597656 73.12698364 130.87597656 73.12698364 C130.87597656 72.46698364 130.87597656 71.80698364 130.87597656 71.12698364 C131.53597656 71.12698364 132.19597656 71.12698364 132.87597656 71.12698364 C133.09640625 70.57784302 133.31683594 70.02870239 133.54394531 69.46292114 C135.29073718 66.39963218 137.66555895 64.16826977 140.18847656 61.75198364 C143.99395061 58.0352239 147.54108648 54.27033193 150.87597656 50.12698364 C153.06347656 47.75198364 153.06347656 47.75198364 154.87597656 46.12698364 C155.53597656 46.12698364 156.19597656 46.12698364 156.87597656 46.12698364 C157.20597656 45.13698364 157.53597656 44.14698364 157.87597656 43.12698364 C158.53597656 43.12698364 159.19597656 43.12698364 159.87597656 43.12698364 C160.13378906 42.55463989 160.39160156 41.98229614 160.65722656 41.39260864 C161.98963598 38.91569369 163.52653774 36.99286704 165.37597656 34.87698364 C165.98441406 34.17057739 166.59285156 33.46417114 167.21972656 32.73635864 C168.87597656 31.12698364 168.87597656 31.12698364 170.87597656 31.12698364 C171.53597656 29.80698364 172.19597656 28.48698364 172.87597656 27.12698364 C173.53597656 27.12698364 174.19597656 27.12698364 174.87597656 27.12698364 C175.53597656 25.80698364 176.19597656 24.48698364 176.87597656 23.12698364 C177.53597656 23.12698364 178.19597656 23.12698364 178.87597656 23.12698364 C179.20597656 22.13698364 179.53597656 21.14698364 179.87597656 20.12698364 C180.53597656 20.12698364 181.19597656 20.12698364 181.87597656 20.12698364 C182.53597656 18.80698364 183.19597656 17.48698364 183.87597656 16.12698364 C184.53597656 16.12698364 185.19597656 16.12698364 185.87597656 16.12698364 C186.27816406 15.25299927 186.27816406 15.25299927 186.68847656 14.36135864 C187.89078647 12.09911764 189.21423569 10.32122047 190.87597656 8.37698364 C191.64941406 7.45659302 191.64941406 7.45659302 192.43847656 6.51760864 C193.87597656 5.12698364 193.87597656 5.12698364 195.87597656 5.12698364 C196.14410156 4.48760864 196.41222656 3.84823364 196.68847656 3.18948364 C197.87597656 1.12698364 197.87597656 1.12698364 200.87597656 0.12698364 C202.92619797 0.03326739 204.97939147 0.0006891 207.03175354 0 C208.32035278 -0.00281982 209.60895203 -0.00563965 210.93659973 -0.00854492 C212.3676454 -0.00660056 213.79869094 -0.00455239 215.22973633 -0.00241089 C216.73430422 -0.00376566 218.23887179 -0.00554602 219.74343872 -0.00772095 C223.83211619 -0.01228589 227.92076847 -0.01050967 232.00944638 -0.00734186 C236.28331143 -0.0048139 240.5571743 -0.00715698 244.83103943 -0.00872803 C252.0077249 -0.01054824 259.18440008 -0.00814707 266.36108398 -0.00338745 C274.66638753 0.00205696 282.97166654 0.00029062 291.27696949 -0.00521386 C298.40057128 -0.00974672 305.52416567 -0.01039475 312.64776844 -0.00777519 C316.90559507 -0.00621364 321.16341015 -0.00601537 325.42123604 -0.00931168 C329.42257592 -0.01219296 333.42388405 -0.01020993 337.42522049 -0.00441742 C338.89664723 -0.0030913 340.36807664 -0.00348145 341.83950233 -0.00568008 C343.84206168 -0.00839727 345.84462685 -0.00439178 347.84718323 0 C349.53098508 0.00056554 349.53098508 0.00056554 351.24880314 0.0011425 C353.87597656 0.12698364 353.87597656 0.12698364 355.87597656 1.12698364 C355.40392537 5.3754444 352.98720134 7.39517652 349.87597656 10.12698364 C349.21597656 10.12698364 348.55597656 10.12698364 347.87597656 10.12698364 C347.54597656 11.11698364 347.21597656 12.10698364 346.87597656 13.12698364 C342.41883371 17.12698364 342.41883371 17.12698364 339.87597656 17.12698364 C339.54597656 18.11698364 339.21597656 19.10698364 338.87597656 20.12698364 C337.13378906 21.91604614 337.13378906 21.91604614 335.00097656 23.75198364 C333.95296875 24.66850708 333.95296875 24.66850708 332.88378906 25.60354614 C330.87597656 27.12698364 330.87597656 27.12698364 327.87597656 28.12698364 C327.87597656 28.78698364 327.87597656 29.44698364 327.87597656 30.12698364 C326.47753906 31.53713989 326.47753906 31.53713989 324.50097656 33.18948364 C320.21763197 36.81502889 316.09225523 40.58897912 311.97753906 44.40432739 C309.87597656 46.12698364 309.87597656 46.12698364 307.87597656 46.12698364 C307.54597656 47.11698364 307.21597656 48.10698364 306.87597656 49.12698364 C302.41883371 53.12698364 302.41883371 53.12698364 299.87597656 53.12698364 C299.21597656 54.44698364 298.55597656 55.76698364 297.87597656 57.12698364 C297.21597656 57.12698364 296.55597656 57.12698364 295.87597656 57.12698364 C295.54597656 58.11698364 295.21597656 59.10698364 294.87597656 60.12698364 C292.83691406 61.92385864 292.83691406 61.92385864 290.25097656 63.87698364 C286.35034206 66.90400956 282.84056839 70.04540551 279.40722656 73.58401489 C277.36769705 75.63915304 275.23117975 77.44469565 272.87597656 79.12698364 C272.21597656 79.12698364 271.55597656 79.12698364 270.87597656 79.12698364 C270.21597656 80.44698364 269.55597656 81.76698364 268.87597656 83.12698364 C268.21597656 83.12698364 267.55597656 83.12698364 266.87597656 83.12698364 C266.54597656 84.11698364 266.21597656 85.10698364 265.87597656 86.12698364 C263.8899732 87.48107685 261.88780114 88.81155988 259.87597656 90.12698364 C258.19164355 91.77579469 256.52863836 93.44642882 254.87597656 95.12698364 C252.33433875 97.58676854 249.76329394 100.01451015 247.18847656 102.43948364 C246.51236328 103.08465942 245.83625 103.72983521 245.13964844 104.39456177 C244.49189453 105.0036438 243.84414062 105.61272583 243.17675781 106.24026489 C242.2975769 107.07231445 242.2975769 107.07231445 241.40063477 107.9211731 C239.87597656 109.12698364 239.87597656 109.12698364 237.87597656 109.12698364 C237.87597656 109.78698364 237.87597656 110.44698364 237.87597656 111.12698364 C237.25722656 111.20948364 236.63847656 111.29198364 236.00097656 111.37698364 C233.69160089 111.93956823 233.69160089 111.93956823 232.62597656 114.18948364 C232.25472656 115.14854614 232.25472656 115.14854614 231.87597656 116.12698364 C231.21597656 116.12698364 230.55597656 116.12698364 229.87597656 116.12698364 C229.54597656 117.11698364 229.21597656 118.10698364 228.87597656 119.12698364 C228.21597656 119.45698364 227.55597656 119.78698364 226.87597656 120.12698364 C227.4697418 123.10392694 228.33319821 125.06005753 230.16113281 127.47463989 C230.60908203 128.07985474 231.05703125 128.68506958 231.51855469 129.30862427 C232.46846586 130.56689725 233.41899113 131.82470686 234.37011719 133.08206177 C237.87597656 137.82230742 237.87597656 137.82230742 237.87597656 141.12698364 C238.86597656 141.45698364 239.85597656 141.78698364 240.87597656 142.12698364 C240.87597656 143.11698364 240.87597656 144.10698364 240.87597656 145.12698364 C241.53597656 145.12698364 242.19597656 145.12698364 242.87597656 145.12698364 C244.39160156 147.25198364 244.39160156 147.25198364 246.12597656 150.12698364 C248.79420546 154.46775015 251.60055915 158.51602537 254.80957031 162.47073364 C255.87597656 164.12698364 255.87597656 164.12698364 255.87597656 167.12698364 C256.53597656 167.12698364 257.19597656 167.12698364 257.87597656 167.12698364 C259.39160156 169.25198364 259.39160156 169.25198364 261.12597656 172.12698364 C263.79420546 176.46775015 266.60055915 180.51602537 269.80957031 184.47073364 C270.87597656 186.12698364 270.87597656 186.12698364 270.87597656 189.12698364 C271.86597656 189.45698364 272.85597656 189.78698364 273.87597656 190.12698364 C275.86993914 192.78782333 277.87597656 195.73940689 277.87597656 199.12698364 C278.53597656 199.12698364 279.19597656 199.12698364 279.87597656 199.12698364 C281.11260519 200.87109666 282.26699791 202.67404849 283.37597656 204.50198364 C285.81814163 208.55641511 285.81814163 208.55641511 288.87597656 212.12698364 C288.87597656 213.11698364 288.87597656 214.10698364 288.87597656 215.12698364 C289.53597656 215.12698364 290.19597656 215.12698364 290.87597656 215.12698364 C291.53597656 217.10698364 292.19597656 219.08698364 292.87597656 221.12698364 C293.53597656 221.12698364 294.19597656 221.12698364 294.87597656 221.12698364 C296.27832031 222.95510864 296.27832031 222.95510864 297.81347656 225.37698364 C299.32965591 227.75013393 300.80479661 230.03821419 302.56738281 232.23635864 C303.87597656 234.12698364 303.87597656 234.12698364 303.87597656 237.12698364 C304.53597656 237.12698364 305.19597656 237.12698364 305.87597656 237.12698364 C307.41894531 239.20901489 307.41894531 239.20901489 309.06347656 241.93948364 C309.88912109 243.27946411 309.88912109 243.27946411 310.73144531 244.64651489 C311.87597656 247.12698364 311.87597656 247.12698364 310.87597656 250.12698364 C262.36597656 250.12698364 213.85597656 250.12698364 163.87597656 250.12698364 C163.87597656 249.13698364 163.87597656 248.14698364 163.87597656 247.12698364 C163.21597656 247.12698364 162.55597656 247.12698364 161.87597656 247.12698364 C160.24167906 245.03248684 158.73430422 242.94916273 157.25097656 240.75198364 C156.620625 239.84706177 156.620625 239.84706177 155.97753906 238.92385864 C152.87597656 234.39235499 152.87597656 234.39235499 152.87597656 232.12698364 C152.21597656 232.12698364 151.55597656 232.12698364 150.87597656 232.12698364 C150.60785156 231.15760864 150.33972656 230.18823364 150.06347656 229.18948364 C149.47566406 227.67354614 149.47566406 227.67354614 148.87597656 226.12698364 C147.88597656 225.79698364 146.89597656 225.46698364 145.87597656 225.12698364 C145.87597656 224.13698364 145.87597656 223.14698364 145.87597656 222.12698364 C144.88597656 221.79698364 143.89597656 221.46698364 142.87597656 221.12698364 C141.48925781 219.34963989 141.48925781 219.34963989 140.18847656 217.18948364 C139.75148438 216.47921021 139.31449219 215.76893677 138.86425781 215.03713989 C137.87597656 213.12698364 137.87597656 213.12698364 137.87597656 211.12698364 C137.21597656 211.12698364 136.55597656 211.12698364 135.87597656 211.12698364 C134.47363281 209.33401489 134.47363281 209.33401489 132.93847656 206.93948364 C132.40867187 206.12092896 131.87886719 205.30237427 131.33300781 204.45901489 C130.23402189 202.70004815 129.17103642 200.91851482 128.12597656 199.12698364 C127.03004134 196.98674519 127.03004134 196.98674519 124.87597656 196.12698364 C122.74759703 192.93441434 121.21005578 189.71873537 119.87597656 186.12698364 C119.21597656 186.12698364 118.55597656 186.12698364 117.87597656 186.12698364 C116.61425781 184.50979614 116.61425781 184.50979614 115.18847656 182.25198364 C112.32694158 177.79364149 109.29993539 173.48609553 106.19628906 169.19338989 C104.87597656 167.12698364 104.87597656 167.12698364 104.87597656 165.12698364 C104.21597656 165.12698364 103.55597656 165.12698364 102.87597656 165.12698364 C102.21597656 164.46698364 101.55597656 163.80698364 100.87597656 163.12698364 C100.3951706 166.12672902 99.91628975 169.12676133 99.43847656 172.12698364 C99.23641602 173.38575317 99.23641602 173.38575317 99.03027344 174.66995239 C98.39434894 178.6716236 97.80004678 182.66338862 97.34082031 186.68948364 C96.87597656 190.12698364 96.87597656 190.12698364 95.87597656 191.12698364 C95.58878571 193.11025453 95.3603774 195.10210084 95.15722656 197.09573364 C95.02960938 198.30616333 94.90199219 199.51659302 94.77050781 200.76370239 C94.57521484 202.67602661 94.57521484 202.67602661 94.37597656 204.62698364 C94.11956231 207.13781227 93.85935662 209.64825762 93.59472656 212.15823364 C93.42360352 213.83755981 93.42360352 213.83755981 93.24902344 215.55081177 C92.87597656 218.12698364 92.87597656 218.12698364 91.87597656 219.12698364 C91.45574716 222.62634849 91.11151102 226.12425983 90.80175781 229.63479614 C90.31751496 234.51005469 89.45763145 239.17896677 88.33251953 243.95022583 C87.92427444 245.69006744 87.92427444 245.69006744 87.50778198 247.46505737 C87.1950383 248.78271088 87.1950383 248.78271088 86.87597656 250.12698364 C70.07373835 250.1503124 53.27150518 250.1679627 36.46925449 250.17879581 C28.6682182 250.18395882 20.86719196 250.19100161 13.06616211 250.2024231 C6.26921343 250.21236979 -0.52772797 250.21883703 -7.32468373 250.22107214 C-10.92580475 250.22237927 -14.52690496 250.22546528 -18.12801933 250.2327137 C-22.14158946 250.24072728 -26.15512308 250.24097479 -30.16870117 250.24050903 C-31.37135117 250.24410431 -32.57400116 250.24769958 -33.81309509 250.25140381 C-34.89989563 250.25002914 -35.98669617 250.24865448 -37.10643005 250.24723816 C-38.05679862 250.24815995 -39.00716719 250.24908175 -39.9863348 250.25003147 C-42.12402344 250.12698364 -42.12402344 250.12698364 -43.12402344 249.12698364 C-43.22192913 247.6296024 -43.25377208 246.12755472 -43.24902344 244.62698364 C-43.25160156 243.81229614 -43.25417969 242.99760864 -43.25683594 242.15823364 C-43.12402344 240.12698364 -43.12402344 240.12698364 -42.12402344 239.12698364 C-41.84884614 237.44262773 -41.63211132 235.74865272 -41.44042969 234.05276489 C-41.31845215 232.9989563 -41.19647461 231.94514771 -41.07080078 230.85940552 C-40.94398926 229.7308313 -40.81717773 228.60225708 -40.68652344 227.43948364 C-39.73972246 219.25930818 -38.74156007 211.10382006 -37.52636719 202.95901489 C-37.14113259 200.24741212 -36.83695705 197.53915766 -36.56152344 194.81448364 C-36.12402344 191.12698364 -36.12402344 191.12698364 -35.12402344 190.12698364 C-34.83683258 188.14371275 -34.60842428 186.15186644 -34.40527344 184.15823364 C-34.27765625 182.94780396 -34.15003906 181.73737427 -34.01855469 180.49026489 C-33.88835938 179.21538208 -33.75816406 177.94049927 -33.62402344 176.62698364 C-33.36760919 174.11615501 -33.1074035 171.60570966 -32.84277344 169.09573364 C-32.72869141 167.97618286 -32.61460937 166.85663208 -32.49707031 165.70315552 C-32.12402344 163.12698364 -32.12402344 163.12698364 -31.12402344 162.12698364 C-30.84884614 160.44262773 -30.63211132 158.74865272 -30.44042969 157.05276489 C-30.31845215 155.99887573 -30.19647461 154.94498657 -30.07080078 153.85916138 C-29.94398926 152.73066772 -29.81717773 151.60217407 -29.68652344 150.43948364 C-29.42079177 148.14507404 -29.15387247 145.85080167 -28.88574219 143.55667114 C-28.69117432 141.89136353 -28.69117432 141.89136353 -28.49267578 140.19241333 C-27.91789326 135.41296346 -27.23587236 130.65391605 -26.52636719 125.89260864 C-26.15932188 123.36961757 -25.84936649 120.84750252 -25.56152344 118.31448364 C-25.12402344 115.12698364 -25.12402344 115.12698364 -24.12402344 114.12698364 C-23.83649376 112.07061959 -23.60824628 110.00590772 -23.40527344 107.93948364 C-23.27765625 106.68393677 -23.15003906 105.42838989 -23.01855469 104.13479614 C-22.88653833 102.79890854 -22.75503423 101.46297023 -22.62402344 100.12698364 C-22.36859538 97.52224817 -22.10743464 94.91832219 -21.84277344 92.31448364 C-21.72869141 91.15303833 -21.61460937 89.99159302 -21.49707031 88.79495239 C-21.12402344 86.12698364 -21.12402344 86.12698364 -20.12402344 85.12698364 C-19.86073407 83.62145059 -19.6557426 82.10564794 -19.47558594 80.58792114 C-19.35876465 79.62507202 -19.24194336 78.6622229 -19.12158203 77.67019653 C-18.9986377 76.62468628 -18.87569336 75.57917603 -18.74902344 74.50198364 C-18.48384391 72.32093985 -18.21820636 70.13995171 -17.95214844 67.95901489 C-17.81615234 66.83446899 -17.68015625 65.7099231 -17.54003906 64.55130005 C-16.87717194 59.09509446 -16.194289 53.64164707 -15.49902344 48.18948364 C-15.3760791 47.19545532 -15.25313477 46.201427 -15.12646484 45.17727661 C-15.00964355 44.26478149 -14.89282227 43.35228638 -14.77246094 42.41213989 C-14.6711084 41.6065564 -14.56975586 40.8009729 -14.46533203 39.97097778 C-14.12402344 38.12698364 -14.12402344 38.12698364 -13.12402344 37.12698364 C-12.8484726 35.23749217 -12.63193304 33.33933436 -12.44042969 31.43948364 C-12.31732422 30.26514771 -12.19421875 29.09081177 -12.06738281 27.88088989 C-11.81665457 25.4096095 -11.56663585 22.93825701 -11.31738281 20.46682739 C-9.92726142 7.22826196 -9.92726142 7.22826196 -8.12402344 1.12698364 C-5.12011908 0.12568219 -3.13796452 0.00128248 0 0 Z " fill="#FC0000" transform="translate(867.1240234375,-0.126983642578125)"/>
<path d="M0 0 C93.72 0 187.44 0 284 0 C284 10.13248711 284 10.13248711 282.94140625 15.3125 C282.60979492 16.95412109 282.60979492 16.95412109 282.27148438 18.62890625 C282.03751953 19.74136719 281.80355469 20.85382812 281.5625 22 C281.33240234 23.14339844 281.10230469 24.28679688 280.86523438 25.46484375 C279.14412514 33.85587486 279.14412514 33.85587486 278 35 C277.72847347 36.32775172 277.51003132 37.66648457 277.31640625 39.0078125 C277.19330078 39.83023438 277.07019531 40.65265625 276.94335938 41.5 C276.69286407 43.22649071 276.44285037 44.95305138 276.19335938 46.6796875 C275.45474233 51.60890382 274.42923676 56.22790404 273 61 C272.835 62.2375 272.67 63.475 272.5 64.75 C272 68 272 68 270 71 C267.45647517 71.28660203 265.15713036 71.37857678 262.61279297 71.34057617 C261.47118713 71.34123329 261.47118713 71.34123329 260.30651855 71.34190369 C257.78481607 71.33980959 255.26377417 71.31645001 252.7421875 71.29296875 C250.99627038 71.28737499 249.25034856 71.28310385 247.50442505 71.28010559 C242.9044296 71.26863948 238.30471737 71.23915727 233.70483398 71.20599365 C229.01289705 71.17533071 224.32091445 71.16160835 219.62890625 71.14648438 C210.41914625 71.11428913 201.20959666 71.06307159 192 71 C191.93941406 72.21558594 191.87882813 73.43117188 191.81640625 74.68359375 C191.73201668 76.26824228 191.6473679 77.85287702 191.5625 79.4375 C191.52318359 80.23994141 191.48386719 81.04238281 191.44335938 81.86914062 C191.11328125 87.88671875 191.11328125 87.88671875 190 89 C189.7251073 90.731467 189.50824565 92.47221883 189.31640625 94.21484375 C189.19330078 95.29443359 189.07019531 96.37402344 188.94335938 97.48632812 C188.69333317 99.75195023 188.44333234 102.01757514 188.19335938 104.28320312 C187.52055291 110.18507537 186.71177826 115.97340447 185.4375 121.77734375 C184.96026221 124.20188219 184.68370339 126.60431303 184.4375 129.0625 C184 133 184 133 183 134 C182.71356936 135.83705518 182.48480273 137.68317519 182.28125 139.53125 C182.08982422 141.21154297 182.08982422 141.21154297 181.89453125 142.92578125 C181.76433594 144.10527344 181.63414062 145.28476563 181.5 146.5 C181.24354201 148.82335705 180.98333244 151.14630413 180.71875 153.46875 C180.54762695 155.02239258 180.54762695 155.02239258 180.37304688 156.60742188 C180 159 180 159 179 160 C178.71350459 161.82528328 178.48476609 163.65970602 178.28125 165.49609375 C178.08982422 167.16961914 178.08982422 167.16961914 177.89453125 168.87695312 C177.69923828 170.63942383 177.69923828 170.63942383 177.5 172.4375 C177.24301619 174.74908214 176.98276406 177.06030401 176.71875 179.37109375 C176.54762695 180.9168811 176.54762695 180.9168811 176.37304688 182.49389648 C176 185 176 185 175 187 C174.52922698 190.65216882 174.13080135 194.30455885 173.75 197.96679688 C173.10162991 203.89837009 173.10162991 203.89837009 172 205 C171.7251073 206.731467 171.50824565 208.47221883 171.31640625 210.21484375 C171.19330078 211.29443359 171.07019531 212.37402344 170.94335938 213.48632812 C170.69333317 215.75195023 170.44333234 218.01757514 170.19335938 220.28320312 C169.52033706 226.18696886 168.7110112 231.97740523 167.4375 237.78344727 C166.8223371 240.90011244 166.52277556 244.02542213 166.24609375 247.1875 C166 249 166 249 165 251 C122.43 251 79.86 251 36 251 C36 240 36 240 37 239 C37.28682556 237.08983184 37.51540649 235.17084947 37.71875 233.25 C37.84636719 232.0846875 37.97398437 230.919375 38.10546875 229.71875 C38.23566406 228.4915625 38.36585938 227.264375 38.5 226 C38.75643522 223.58290762 39.01664278 221.16621142 39.28125 218.75 C39.39533203 217.67234375 39.50941406 216.5946875 39.62695312 215.484375 C40 213 40 213 41 212 C41.27454824 210.35346118 41.49157909 208.69725344 41.68359375 207.0390625 C41.80669922 206.00910156 41.92980469 204.97914063 42.05664062 203.91796875 C42.18232422 202.83128906 42.30800781 201.74460938 42.4375 200.625 C43.36052729 192.68403506 44.50408031 184.85301259 46 177 C47.77662968 167.10573559 49.3235872 157.22045118 50.35351562 147.21826172 C50.89873968 142.10126032 50.89873968 142.10126032 52 141 C52.27461821 139.36524263 52.49161828 137.72072786 52.68359375 136.07421875 C52.86656006 134.54571289 52.86656006 134.54571289 53.05322266 132.98632812 C53.18003418 131.89771484 53.3068457 130.80910156 53.4375 129.6875 C54.33672146 122.2082612 55.2721295 114.77184569 56.59765625 107.35546875 C56.99795543 105.01196964 57.29456676 102.6744346 57.5625 100.3125 C58 97 58 97 59 96 C59.99 87.75 60.98 79.5 62 71 C36.92 71 11.84 71 -14 71 C-14.91643629 66.41781853 -14.94326663 65.26059475 -13.60546875 61.1484375 C-12.85211009 58.47522934 -12.43185995 55.80567439 -12 53.0625 C-11.35671616 49.03324925 -10.60128857 45.11583597 -9.56640625 41.171875 C-7.38218175 32.79650382 -5.71163903 24.44160774 -4.46484375 15.87890625 C-3.57343482 10.35816354 -1.77102822 5.31308466 0 0 Z " fill="#0032A9" transform="translate(381,0)"/>
<path d="M0 0 C1.58995789 -0.00422974 1.58995789 -0.00422974 3.21203613 -0.00854492 C4.95607727 -0.00550858 4.95607727 -0.00550858 6.73535156 -0.00241089 C8.5722052 -0.00503937 8.5722052 -0.00503937 10.44616699 -0.00772095 C13.8056094 -0.01137172 17.16499034 -0.01051074 20.52442932 -0.00734186 C24.03842248 -0.00481197 27.55241299 -0.00715756 31.06640625 -0.00872803 C36.96777824 -0.01054788 42.86913772 -0.00814824 48.77050781 -0.00338745 C55.59548826 0.00205482 62.42043883 0.00029203 69.24541855 -0.00521386 C75.10280488 -0.00975023 80.96018221 -0.01039296 86.81756973 -0.00777519 C90.31698344 -0.00621531 93.81638309 -0.00601077 97.3157959 -0.00931168 C101.21607629 -0.01273365 105.11632315 -0.00799206 109.01660156 -0.00241089 C110.17929565 -0.00443512 111.34198975 -0.00645935 112.53991699 -0.00854492 C113.59988892 -0.0057251 114.65986084 -0.00290527 115.75195312 0 C116.67445862 0.00037703 117.59696411 0.00075405 118.54742432 0.0011425 C120.87597656 0.12698364 120.87597656 0.12698364 123.87597656 1.12698364 C123.38303352 11.5467796 121.94460973 21.6421326 120.21972656 31.91506958 C119.87223669 34.15104843 119.60085268 36.3866892 119.34472656 38.63479614 C118.87597656 42.12698364 118.87597656 42.12698364 117.87597656 43.12698364 C117.58878571 45.11025453 117.3603774 47.10210084 117.15722656 49.09573364 C117.02960938 50.30616333 116.90199219 51.51659302 116.77050781 52.76370239 C116.57521484 54.67602661 116.57521484 54.67602661 116.37597656 56.62698364 C116.11956231 59.13781227 115.85935662 61.64825762 115.59472656 64.15823364 C115.42360352 65.83755981 115.42360352 65.83755981 115.24902344 67.55081177 C114.87597656 70.12698364 114.87597656 70.12698364 113.87597656 71.12698364 C113.65054025 72.73726976 113.47980318 74.35529001 113.33300781 75.97463989 C113.22794922 76.9730188 113.12289062 77.97139771 113.01464844 79.00003052 C112.80016337 81.09736055 112.60177079 83.19640979 112.42089844 85.29690552 C111.62297406 92.50589861 109.85835762 96.85476251 104.87597656 102.12698364 C103.96976563 103.08604614 103.06355469 104.04510864 102.12988281 105.03323364 C101.24171875 105.88917114 100.35355469 106.74510864 99.43847656 107.62698364 C95.58425729 111.38724531 91.92537269 115.23496257 88.45019531 119.34963989 C86.85287608 121.15306483 85.14992272 122.74917493 83.37597656 124.37698364 C82.13847656 125.73823364 82.13847656 125.73823364 80.87597656 127.12698364 C81.31707353 130.30785189 82.64472927 133.17199014 83.87597656 136.12698364 C84.53597656 136.12698364 85.19597656 136.12698364 85.87597656 136.12698364 C88.26749922 138.98835358 90.42114793 142.00820318 92.61425781 145.02151489 C93.89013456 146.77336639 95.18583098 148.51230612 96.54394531 150.20120239 C100.29691337 154.92267834 101.17254938 159.54529652 100.68554688 165.42678833 C100.34460485 167.83937806 99.93954032 170.23027117 99.50097656 172.62698364 C99.22111728 174.24135709 98.94245917 175.85593925 98.66503906 177.47073364 C98.5287207 178.24546021 98.39240234 179.02018677 98.25195312 179.81838989 C97.8812546 182.09457509 97.59727308 184.36707426 97.33691406 186.65823364 C96.87597656 190.12698364 96.87597656 190.12698364 95.87597656 191.12698364 C95.58878571 193.11025453 95.3603774 195.10210084 95.15722656 197.09573364 C95.02960938 198.30616333 94.90199219 199.51659302 94.77050781 200.76370239 C94.57521484 202.67602661 94.57521484 202.67602661 94.37597656 204.62698364 C94.11956231 207.13781227 93.85935662 209.64825762 93.59472656 212.15823364 C93.42360352 213.83755981 93.42360352 213.83755981 93.24902344 215.55081177 C92.87597656 218.12698364 92.87597656 218.12698364 91.87597656 219.12698364 C91.45574716 222.62634849 91.11151102 226.12425983 90.80175781 229.63479614 C90.31751496 234.51005469 89.45763145 239.17896677 88.33251953 243.95022583 C87.92427444 245.69006744 87.92427444 245.69006744 87.50778198 247.46505737 C87.1950383 248.78271088 87.1950383 248.78271088 86.87597656 250.12698364 C70.07373835 250.1503124 53.27150518 250.1679627 36.46925449 250.17879581 C28.6682182 250.18395882 20.86719196 250.19100161 13.06616211 250.2024231 C6.26921343 250.21236979 -0.52772797 250.21883703 -7.32468373 250.22107214 C-10.92580475 250.22237927 -14.52690496 250.22546528 -18.12801933 250.2327137 C-22.14158946 250.24072728 -26.15512308 250.24097479 -30.16870117 250.24050903 C-31.37135117 250.24410431 -32.57400116 250.24769958 -33.81309509 250.25140381 C-34.89989563 250.25002914 -35.98669617 250.24865448 -37.10643005 250.24723816 C-38.05679862 250.24815995 -39.00716719 250.24908175 -39.9863348 250.25003147 C-42.12402344 250.12698364 -42.12402344 250.12698364 -43.12402344 249.12698364 C-43.22192913 247.6296024 -43.25377208 246.12755472 -43.24902344 244.62698364 C-43.25160156 243.81229614 -43.25417969 242.99760864 -43.25683594 242.15823364 C-43.12402344 240.12698364 -43.12402344 240.12698364 -42.12402344 239.12698364 C-41.84884614 237.44262773 -41.63211132 235.74865272 -41.44042969 234.05276489 C-41.31845215 232.9989563 -41.19647461 231.94514771 -41.07080078 230.85940552 C-40.94398926 229.7308313 -40.81717773 228.60225708 -40.68652344 227.43948364 C-39.73972246 219.25930818 -38.74156007 211.10382006 -37.52636719 202.95901489 C-37.14113259 200.24741212 -36.83695705 197.53915766 -36.56152344 194.81448364 C-36.12402344 191.12698364 -36.12402344 191.12698364 -35.12402344 190.12698364 C-34.83683258 188.14371275 -34.60842428 186.15186644 -34.40527344 184.15823364 C-34.27765625 182.94780396 -34.15003906 181.73737427 -34.01855469 180.49026489 C-33.88835938 179.21538208 -33.75816406 177.94049927 -33.62402344 176.62698364 C-33.36760919 174.11615501 -33.1074035 171.60570966 -32.84277344 169.09573364 C-32.72869141 167.97618286 -32.61460937 166.85663208 -32.49707031 165.70315552 C-32.12402344 163.12698364 -32.12402344 163.12698364 -31.12402344 162.12698364 C-30.84884614 160.44262773 -30.63211132 158.74865272 -30.44042969 157.05276489 C-30.31845215 155.99887573 -30.19647461 154.94498657 -30.07080078 153.85916138 C-29.94398926 152.73066772 -29.81717773 151.60217407 -29.68652344 150.43948364 C-29.42079177 148.14507404 -29.15387247 145.85080167 -28.88574219 143.55667114 C-28.69117432 141.89136353 -28.69117432 141.89136353 -28.49267578 140.19241333 C-27.91789326 135.41296346 -27.23587236 130.65391605 -26.52636719 125.89260864 C-26.15932188 123.36961757 -25.84936649 120.84750252 -25.56152344 118.31448364 C-25.12402344 115.12698364 -25.12402344 115.12698364 -24.12402344 114.12698364 C-23.83649376 112.07061959 -23.60824628 110.00590772 -23.40527344 107.93948364 C-23.27765625 106.68393677 -23.15003906 105.42838989 -23.01855469 104.13479614 C-22.88653833 102.79890854 -22.75503423 101.46297023 -22.62402344 100.12698364 C-22.36859538 97.52224817 -22.10743464 94.91832219 -21.84277344 92.31448364 C-21.72869141 91.15303833 -21.61460937 89.99159302 -21.49707031 88.79495239 C-21.12402344 86.12698364 -21.12402344 86.12698364 -20.12402344 85.12698364 C-19.86073407 83.62145059 -19.6557426 82.10564794 -19.47558594 80.58792114 C-19.35876465 79.62507202 -19.24194336 78.6622229 -19.12158203 77.67019653 C-18.9986377 76.62468628 -18.87569336 75.57917603 -18.74902344 74.50198364 C-18.48384391 72.32093985 -18.21820636 70.13995171 -17.95214844 67.95901489 C-17.81615234 66.83446899 -17.68015625 65.7099231 -17.54003906 64.55130005 C-16.87717194 59.09509446 -16.194289 53.64164707 -15.49902344 48.18948364 C-15.3760791 47.19545532 -15.25313477 46.201427 -15.12646484 45.17727661 C-15.00964355 44.26478149 -14.89282227 43.35228638 -14.77246094 42.41213989 C-14.6711084 41.6065564 -14.56975586 40.8009729 -14.46533203 39.97097778 C-14.12402344 38.12698364 -14.12402344 38.12698364 -13.12402344 37.12698364 C-12.8484726 35.23749217 -12.63193304 33.33933436 -12.44042969 31.43948364 C-12.31732422 30.26514771 -12.19421875 29.09081177 -12.06738281 27.88088989 C-11.81665457 25.4096095 -11.56663585 22.93825701 -11.31738281 20.46682739 C-9.92726142 7.22826196 -9.92726142 7.22826196 -8.12402344 1.12698364 C-5.12011908 0.12568219 -3.13796452 0.00128248 0 0 Z " fill="#0032A9" transform="translate(867.1240234375,-0.126983642578125)"/>
<path d="M0 0 C0 0.66 0 1.32 0 2 C0.969375 1.95875 1.93875 1.9175 2.9375 1.875 C20.00880706 1.97742784 37.91622811 12.9360347 52 21.875 C52.90854736 22.44686035 52.90854736 22.44686035 53.83544922 23.03027344 C55.26303749 23.96245633 56.63805778 24.97428726 58 26 C58 26.66 58 27.32 58 28 C59.32 28.33 60.64 28.66 62 29 C62 29.66 62 30.32 62 31 C63.32 31.66 64.64 32.32 66 33 C66 33.66 66 34.32 66 35 C66.58265625 35.2578125 67.1653125 35.515625 67.765625 35.78125 C70.1802903 37.09834017 71.81740177 38.55088384 73.75 40.5 C74.36359375 41.1084375 74.9771875 41.716875 75.609375 42.34375 C77 44 77 44 77 46 C77.99 46.33 78.98 46.66 80 47 C81.86064501 49.38209966 83.57095513 51.74476299 85.25 54.25 C85.73799072 54.97147217 86.22598145 55.69294434 86.72875977 56.4362793 C93.16512016 66.08497348 98.45822426 75.91341827 102 87 C102.43119141 88.31677734 102.43119141 88.31677734 102.87109375 89.66015625 C105.57056283 98.22354382 106.11051024 106.04867065 106 115 C101.38 115 96.76 115 92 115 C91.566875 112.215625 91.566875 112.215625 91.125 109.375 C90.40418368 105.06522408 89.5476909 101.09682885 88 97 C87.53909554 95.58416775 87.08103561 94.16740799 86.625 92.75 C81.37994848 77.04133561 73.81294276 63.89292545 62.94140625 51.43359375 C61 49 61 49 61 47 C60.38125 46.690625 59.7625 46.38125 59.125 46.0625 C57.75 45.375 56.375 44.6875 55 44 C55 44.66 55 45.32 55 46 C55.58652344 46.23847656 56.17304688 46.47695313 56.77734375 46.72265625 C59.45673241 48.26248066 60.73949574 49.95380963 62.5625 52.4375 C64.8482171 55.5700271 64.8482171 55.5700271 67.47265625 58.40625 C74.84294535 66.09698645 83.65654179 81.10046115 84.125 91.875 C84.08375 92.57625 84.0425 93.2775 84 94 C84.66 94 85.32 94 86 94 C86.5361079 96.18380675 87.05320098 98.37228583 87.5625 100.5625 C87.85253906 101.78066406 88.14257812 102.99882813 88.44140625 104.25390625 C89.02033181 108.13635106 88.74517495 111.16555673 88 115 C86.02 115 84.04 115 82 115 C80.85351213 111.86626648 80.00048754 109.00369138 79.5625 105.6875 C78.46213562 98.47400014 75.60434379 91.85294601 72.76953125 85.1640625 C72 83 72 83 72 80 C71.34 80 70.68 80 70 80 C69.1646875 78.2365625 69.1646875 78.2365625 68.3125 76.4375 C66.83737499 73.46081405 65.22388358 70.79620998 63.25 68.125 C61 65 61 65 61 63 C60.34 63 59.68 63 59 63 C57.34375 61.390625 57.34375 61.390625 55.5 59.25 C54.8915625 58.55390625 54.283125 57.8578125 53.65625 57.140625 C52.12023037 55.15539208 51.0276034 53.28127955 50 51 C45.10832797 51.41928617 43.23375968 53.44286435 40 57 C38.37163262 58.7041054 36.71230248 60.38025441 35 62 C34.34 62 33.68 62 33 62 C33 62.66 33 63.32 33 64 C32.34 64.66 31.68 65.32 31 66 C31.55429688 67.19496094 32.10859375 68.38992187 32.6796875 69.62109375 C33.41191218 71.22635556 34.14365743 72.83183612 34.875 74.4375 C35.23980469 75.22060547 35.60460937 76.00371094 35.98046875 76.81054688 C38.09743448 81.48711663 39.58385595 85.92319166 40.5715332 90.95996094 C41.00346768 93.21126243 41.00346768 93.21126243 42.05078125 96.14453125 C43.10510618 99.3161836 43.67750108 102.38592804 44.1875 105.6875 C44.36667969 106.80511719 44.54585937 107.92273438 44.73046875 109.07421875 C45 112 45 112 44 115 C41.66705225 115.04241723 39.33297433 115.04092937 37 115 C34.98039269 112.98039269 35.05099897 109.26702432 34.5625 106.5 C34.29386232 105.03238824 34.02433693 103.56493868 33.75390625 102.09765625 C33.62387207 101.38883301 33.49383789 100.68000977 33.35986328 99.94970703 C32.17503942 93.53043743 30.72555153 87.97524759 28 82 C27.26296958 80.19068344 26.53411769 78.37801871 25.8125 76.5625 C25.46832031 75.69753906 25.12414062 74.83257812 24.76953125 73.94140625 C24.51558594 73.30074219 24.26164063 72.66007812 24 72 C19.3110507 72.55619669 15.80075733 73.88182673 11.625 76.0625 C10.56539062 76.61035156 9.50578125 77.15820312 8.4140625 77.72265625 C7.61742187 78.14417969 6.82078125 78.56570312 6 79 C6.30520961 82.81312091 6.62038329 86.62535234 6.9375 90.4375 C7.06801758 92.07041992 7.06801758 92.07041992 7.20117188 93.73632812 C7.28818359 94.77080078 7.37519531 95.80527344 7.46484375 96.87109375 C7.543396 97.82943115 7.62194824 98.78776855 7.70288086 99.77514648 C7.76667071 101.96909889 7.76667071 101.96909889 9 103 C9.09851171 104.83115883 9.12972629 106.66619933 9.125 108.5 C9.12757813 109.5003125 9.13015625 110.500625 9.1328125 111.53125 C9 114 9 114 8 115 C5 115.125 5 115.125 2 115 C0.1882008 113.1882008 0.52623192 110.37107517 0.28125 107.91796875 C0.15363281 106.67595703 0.02601563 105.43394531 -0.10546875 104.15429688 C-0.30076172 102.19073242 -0.30076172 102.19073242 -0.5 100.1875 C-0.75782066 97.61822776 -1.01813074 95.04920377 -1.28125 92.48046875 C-1.39533203 91.33473389 -1.50941406 90.18899902 -1.62695312 89.00854492 C-1.92790793 86.58140747 -2.33066036 84.34592052 -3 82 C-5.60466543 82.30872329 -8.20867691 82.62181723 -10.8125 82.9375 C-11.55048828 83.02451172 -12.28847656 83.11152344 -13.04882812 83.20117188 C-16.16733121 83.58216546 -19.01108122 84.00369374 -22 85 C-24.51181429 85.09617307 -26.98916622 85.13934762 -29.5 85.125 C-30.17675781 85.12886719 -30.85351562 85.13273437 -31.55078125 85.13671875 C-34.64073767 85.13062416 -37.04679311 84.9844023 -40 84 C-41.40585625 83.79040462 -42.81704993 83.61520745 -44.23046875 83.46484375 C-45.03291016 83.37783203 -45.83535156 83.29082031 -46.66210938 83.20117188 C-47.49548828 83.11416016 -48.32886719 83.02714844 -49.1875 82.9375 C-50.03248047 82.84662109 -50.87746094 82.75574219 -51.74804688 82.66210938 C-53.83171485 82.4384388 -55.91581795 82.21882849 -58 82 C-58.13277344 83.19496094 -58.26554688 84.38992187 -58.40234375 85.62109375 C-59.26822917 93.4140625 -60.13411458 101.20703125 -61 109 C-64.38317487 109.97591583 -66.5657338 109.85856655 -70 109 C-69.86179731 105.6871348 -69.71316222 102.37482011 -69.5625 99.0625 C-69.52318359 98.11697266 -69.48386719 97.17144531 -69.44335938 96.19726562 C-69.40146484 95.29814453 -69.35957031 94.39902344 -69.31640625 93.47265625 C-69.26141968 92.22367554 -69.26141968 92.22367554 -69.20532227 90.94946289 C-69 89 -69 89 -68 88 C-67.76807135 86.48530552 -67.58784762 84.96245438 -67.4375 83.4375 C-67.35371094 82.61121094 -67.26992187 81.78492187 -67.18359375 80.93359375 C-67.12300781 80.29550781 -67.06242188 79.65742187 -67 79 C-67.33773437 79.5775 -67.67546875 80.155 -68.0234375 80.75 C-68.46945313 81.4925 -68.91546875 82.235 -69.375 83 C-69.81585938 83.7425 -70.25671875 84.485 -70.7109375 85.25 C-71.34902344 86.11625 -71.34902344 86.11625 -72 87 C-72.66 87 -73.32 87 -74 87 C-74.33 88.32 -74.66 89.64 -75 91 C-75.66 91 -76.32 91 -77 91 C-77.2165625 91.8971875 -77.2165625 91.8971875 -77.4375 92.8125 C-77.8872439 94.56150404 -78.42892341 96.28677023 -79 98 C-79.66 98 -80.32 98 -81 98 C-81.26554687 98.71542969 -81.53109375 99.43085937 -81.8046875 100.16796875 C-83.02914099 103.06904319 -84.47983063 105.63015864 -86.125 108.3125 C-86.66382812 109.19550781 -87.20265625 110.07851562 -87.7578125 110.98828125 C-88.16773437 111.65214844 -88.57765625 112.31601563 -89 113 C-88.23042969 112.98839844 -87.46085937 112.97679688 -86.66796875 112.96484375 C-77.64526286 112.89395829 -68.64242111 113.12495933 -59.625 113.4375 C-58.40578857 113.47673584 -57.18657715 113.51597168 -55.93041992 113.55639648 C-54.79064697 113.59837158 -53.65087402 113.64034668 -52.4765625 113.68359375 C-51.44611816 113.72025146 -50.41567383 113.75690918 -49.35400391 113.79467773 C-47 114 -47 114 -46 115 C-43.71187186 115.15215174 -41.41800872 115.22186492 -39.125 115.25 C-37.86945313 115.27578125 -36.61390625 115.3015625 -35.3203125 115.328125 C-32.03447691 115.31698951 -32.03447691 115.31698951 -30.1796875 113.484375 C-29.79039062 112.99453125 -29.40109375 112.5046875 -29 112 C-28.34 112 -27.68 112 -27 112 C-26.01 110.02 -26.01 110.02 -25 108 C-24.34 108 -23.68 108 -23 108 C-23 107.34 -23 106.68 -23 106 C-20.11584117 104.55792059 -17.58278472 104.90605113 -14.375 104.9375 C-13.18648437 104.94652344 -11.99796875 104.95554687 -10.7734375 104.96484375 C-9.85820312 104.97644531 -8.94296875 104.98804687 -8 105 C-8.33 106.98 -8.66 108.96 -9 111 C-9.66 111 -10.32 111 -11 111 C-11.66 112.98 -12.32 114.96 -13 117 C-13.66 117 -14.32 117 -15 117 C-16.59333021 123.61844858 -15.5074522 126.93665653 -12.12890625 132.80078125 C-11 135 -11 135 -11 138 C-10.34 138 -9.68 138 -9 138 C-8.61781233 139.65614657 -8.28604898 141.32457024 -8 143 C-9.86251681 144.86251681 -12.7503549 144.30214039 -15.25 144.375 C-21.54577513 144.33371623 -21.54577513 144.33371623 -25.0625 141.75 C-25.701875 140.8425 -26.34125 139.935 -27 139 C-29.63882465 135.81623255 -29.63882465 135.81623255 -33.453125 134.57421875 C-34.37609375 134.61160156 -35.2990625 134.64898437 -36.25 134.6875 C-37.29285156 134.72359375 -38.33570313 134.7596875 -39.41015625 134.796875 C-40.59480469 134.86390625 -41.77945313 134.9309375 -43 135 C-44.43618596 135.06796148 -45.87238445 135.13565849 -47.30859375 135.203125 C-48.76834303 135.27909287 -50.22798278 135.35719711 -51.6875 135.4375 C-52.39487305 135.47641357 -53.10224609 135.51532715 -53.83105469 135.55541992 C-57.20589852 135.50120175 -57.20589852 135.50120175 -60 137 C-69.30337035 138.00745053 -78.65116419 138.1418879 -88 138 C-88 139.32 -88 140.64 -88 142 C-87.34 142 -86.68 142 -86 142 C-82.11408451 148.51830986 -82.11408451 148.51830986 -81.4375 151.375 C-81.2209375 152.179375 -81.2209375 152.179375 -81 153 C-80.01 153.33 -79.02 153.66 -78 154 C-76.859375 155.71484375 -76.859375 155.71484375 -75.75 157.9375 C-72.93882819 163.28474423 -69.53944376 168.1141396 -66 173 C-66.30742903 170.68682039 -66.62107702 168.37446648 -66.9375 166.0625 C-67.11152344 164.77472656 -67.28554687 163.48695313 -67.46484375 162.16015625 C-67.66162423 159.14533687 -67.66162423 159.14533687 -69 158 C-69.15655027 156.51361008 -69.25066943 155.02050873 -69.31640625 153.52734375 C-69.35830078 152.62822266 -69.40019531 151.72910156 -69.44335938 150.80273438 C-69.48267578 149.85720703 -69.52199219 148.91167969 -69.5625 147.9375 C-69.60568359 146.98810547 -69.64886719 146.03871094 -69.69335938 145.06054688 C-69.79979276 142.70718647 -69.90181008 140.35371646 -70 138 C-67.36 138 -64.72 138 -62 138 C-60.68750472 140.62499056 -60.57215057 142.96247755 -60.24609375 145.8828125 C-60.11396484 147.04941406 -59.98183594 148.21601563 -59.84570312 149.41796875 C-59.71099609 150.64128906 -59.57628906 151.86460937 -59.4375 153.125 C-59.22963867 154.97158203 -59.22963867 154.97158203 -59.01757812 156.85546875 C-58.67499439 159.90328268 -58.3359537 162.95144931 -58 166 C-55.66705225 166.04241723 -53.33297433 166.04092937 -51 166 C-50.67 165.67 -50.34 165.34 -50 165 C-43.19184339 163.85046583 -36.45322024 163.85043415 -29.5625 163.875 C-28.48162109 163.87113281 -27.40074219 163.86726562 -26.28710938 163.86328125 C-20.10750709 163.87077622 -14.12662689 164.18827025 -8 165 C-8 165.66 -8 166.32 -8 167 C-6.35 167 -4.7 167 -3 167 C-1.38838317 158.56472894 -0.45140705 150.14236203 0.30224609 141.59277344 C0.37910645 140.75391602 0.4559668 139.91505859 0.53515625 139.05078125 C0.63389038 137.91636597 0.63389038 137.91636597 0.73461914 136.7590332 C1 135 1 135 2 134 C4.33297433 133.95907063 6.66705225 133.95758277 9 134 C9.02686553 135.97909398 9.04633375 137.95828971 9.0625 139.9375 C9.07410156 141.03964844 9.08570313 142.14179688 9.09765625 143.27734375 C9 146 9 146 8 147 C7.77285996 148.63066766 7.60544914 150.26976003 7.46484375 151.91015625 C7.33432617 153.39418945 7.33432617 153.39418945 7.20117188 154.90820312 C7.0706543 156.46958008 7.0706543 156.46958008 6.9375 158.0625 C6.80118164 159.62967773 6.80118164 159.62967773 6.66210938 161.22851562 C6.43739092 163.8186915 6.2168769 166.40915767 6 169 C6.67981934 169.26844727 7.35963867 169.53689453 8.06005859 169.81347656 C8.95547363 170.16893555 9.85088867 170.52439453 10.7734375 170.890625 C12.1025415 171.4170459 12.1025415 171.4170459 13.45849609 171.95410156 C16.39669932 173.16325263 19.18984927 174.5209733 22 176 C22 176.66 22 177.32 22 178 C22.99 178 23.98 178 25 178 C25.061875 177.236875 25.12375 176.47375 25.1875 175.6875 C25.92369974 172.34628578 26.87044232 170.08968812 28.375 167.0625 C31.17793102 161.18120542 32.30973121 155.45880672 33.421875 149.08984375 C34 146 34 146 35 144 C35.22622081 142.29636178 35.40888473 140.58671299 35.5625 138.875 C35.64628906 137.96492187 35.73007813 137.05484375 35.81640625 136.1171875 C35.87699219 135.41851562 35.93757812 134.71984375 36 134 C38.64 134 41.28 134 44 134 C46.53352194 139.06704388 44.73994244 145.52588888 43.6875 150.875 C43.54997314 151.58188965 43.41244629 152.2887793 43.27075195 153.01708984 C41.40983348 162.27167468 38.01946773 170.45974068 34.20703125 179.05859375 C32.87345425 181.77847295 32.87345425 181.77847295 33 184 C34.4541533 185.22333532 35.96398543 186.38117457 37.5 187.5 C39.03601457 188.61882543 40.5458467 189.77666468 42 191 C42 191.66 42 192.32 42 193 C42.66 193 43.32 193 44 193 C45.625 195 45.625 195 47 197 C50.6689056 195.50282328 52.60573328 193.39237269 55.125 190.375 C56.37446801 188.88035336 57.65778112 187.41194453 59 186 C59.66 186 60.32 186 61 186 C61.226875 185.319375 61.45375 184.63875 61.6875 183.9375 C63.00637934 180.98572242 64.71109329 178.6852037 66.62890625 176.1015625 C69.84211421 171.17647451 72.14436129 165.56691612 74 160 C74.66 160 75.32 160 76 160 C76.103125 158.9275 76.20625 157.855 76.3125 156.75 C77.27651965 149.01029942 79.35378834 141.32797075 82 134 C83.98 134 85.96 134 88 134 C89.42015927 139.53862116 88.49155037 143.63523012 87 149 C86.57847656 150.52560547 86.57847656 150.52560547 86.1484375 152.08203125 C84.01985491 159.37632036 81.34250596 166.18128785 78 173 C77.51273437 173.99773437 77.51273437 173.99773437 77.015625 175.015625 C76.35498331 176.34937332 75.67990771 177.67596921 75 179 C74.34 179 73.68 179 73 179 C72.87044922 179.82177734 72.87044922 179.82177734 72.73828125 180.66015625 C71.76508033 183.74453376 70.12137015 185.85063474 68.1875 188.4375 C67.50042969 189.36433594 66.81335938 190.29117188 66.10546875 191.24609375 C65.41066406 192.15488281 64.71585937 193.06367188 64 194 C63.29488281 194.93972656 62.58976562 195.87945312 61.86328125 196.84765625 C60.94095703 197.91306641 60.94095703 197.91306641 60 199 C59.34 199 58.68 199 58 199 C58 199.66 58 200.32 58 201 C56.70766393 202.37310707 55.37562854 203.71034824 54 205 C54.66 205 55.32 205 56 205 C56.495 204.505 56.99 204.01 57.5 203.5 C57.995 203.005 58.49 202.51 59 202 C59.66 202 60.32 202 61 202 C61.2475 201.443125 61.495 200.88625 61.75 200.3125 C63.22924818 197.57589087 64.93467439 195.32349131 67 193 C67.66 193 68.32 193 69 193 C69.33 191.68 69.66 190.36 70 189 C70.66 189 71.32 189 72 189 C72.66 187.02 73.32 185.04 74 183 C74.66 183 75.32 183 76 183 C76.268125 182.13375 76.53625 181.2675 76.8125 180.375 C77.97111987 177.08208036 79.38209839 174.08872125 81 171 C81.66 171 82.32 171 83 171 C83.12117188 170.40832031 83.24234375 169.81664062 83.3671875 169.20703125 C83.53476562 168.41683594 83.70234375 167.62664062 83.875 166.8125 C84.03742188 166.03519531 84.19984375 165.25789062 84.3671875 164.45703125 C85.0374034 161.85477321 85.98805163 159.48738454 87 157 C89.3891524 149.43833267 90.80241647 141.83035388 92 134 C96.62 134 101.24 134 106 134 C106.36424094 149.48023994 102.82832085 161.82860057 97 176 C96.34 176 95.68 176 95 176 C94.896875 176.9075 94.79375 177.815 94.6875 178.75 C93.98322506 182.07929974 93.12094572 183.43719059 91 186 C90.67 186.99 90.34 187.98 90 189 C89.34 189 88.68 189 88 189 C87.7525 189.70125 87.505 190.4025 87.25 191.125 C85.82819762 194.39514548 84.12753712 197.141122 82 200 C81.34 200 80.68 200 80 200 C79.9175 200.5775 79.835 201.155 79.75 201.75 C78.78202213 204.6539336 77.31305716 206.03740604 75 208 C74.34 208 73.68 208 73 208 C72.34 209.32 71.68 210.64 71 212 C70.34 212 69.68 212 69 212 C68.67 212.99 68.34 213.98 68 215 C52.80305012 229.69530299 32.22319835 240.38621592 12 246.0625 C10.2984375 246.54396484 10.2984375 246.54396484 8.5625 247.03515625 C7.386875 247.35355469 6.21125 247.67195312 5 248 C3.8462085 248.34442139 2.69241699 248.68884277 1.50366211 249.04370117 C-3.84524636 250.3676888 -9.13807754 250.2868458 -14.62109375 250.265625 C-15.7204274 250.26753845 -16.81976105 250.2694519 -17.95240784 250.27142334 C-20.26783478 250.27277898 -22.58326948 250.2691261 -24.89868164 250.26074219 C-28.42286438 250.25004443 -31.94653621 250.26065364 -35.47070312 250.2734375 C-37.72916778 250.2721156 -39.98763212 250.26955256 -42.24609375 250.265625 C-43.81211586 250.27169769 -43.81211586 250.27169769 -45.40977478 250.27789307 C-51.54354617 250.23901217 -57.08282189 249.61490816 -63 248 C-63.88244385 247.7736084 -64.7648877 247.5472168 -65.67407227 247.31396484 C-66.38104248 247.11496582 -67.0880127 246.9159668 -67.81640625 246.7109375 C-68.59951172 246.49179688 -69.38261719 246.27265625 -70.18945312 246.046875 C-70.97255859 245.82515625 -71.75566406 245.6034375 -72.5625 245.375 C-73.38041016 245.14554688 -74.19832031 244.91609375 -75.04101562 244.6796875 C-77.0279512 244.1219512 -79.01406511 243.56128904 -81 243 C-81 242.34 -81 241.68 -81 241 C-81.99 240.9175 -82.98 240.835 -84 240.75 C-88.47456948 240.13691993 -92.09570685 238.18031955 -96 236 C-96 235.34 -96 234.68 -96 234 C-96.68835938 233.91492188 -97.37671875 233.82984375 -98.0859375 233.7421875 C-101.69055115 232.82412236 -104.52292077 231.10098198 -107.625 229.125 C-108.19734375 228.77308594 -108.7696875 228.42117187 -109.359375 228.05859375 C-112.22528701 226.26573252 -114.70713047 224.47949845 -117 222 C-118.28408393 220.86635268 -119.57625431 219.74182022 -120.875 218.625 C-124.04833549 215.86205945 -127.0611604 213.01419446 -130 210 C-130.61359375 209.40832031 -131.2271875 208.81664062 -131.859375 208.20703125 C-132.50390625 207.58183594 -133.1484375 206.95664063 -133.8125 206.3125 C-134.71935547 205.44044922 -134.71935547 205.44044922 -135.64453125 204.55078125 C-137 203 -137 203 -137 201 C-137.66 201 -138.32 201 -139 201 C-139.103125 200.360625 -139.20625 199.72125 -139.3125 199.0625 C-139.539375 198.381875 -139.76625 197.70125 -140 197 C-140.99 196.67 -141.98 196.34 -143 196 C-144.28125 194.109375 -144.28125 194.109375 -145.5 191.75 C-145.93183594 190.93144531 -146.36367187 190.11289063 -146.80859375 189.26953125 C-147.20175781 188.52058594 -147.59492188 187.77164063 -148 187 C-148.515625 186.154375 -149.03125 185.30875 -149.5625 184.4375 C-150.83770744 182.27519174 -152.03130183 180.10250067 -153.1875 177.875 C-153.53167969 177.21242187 -153.87585938 176.54984375 -154.23046875 175.8671875 C-155 174 -155 174 -155 171 C-155.66 171 -156.32 171 -157 171 C-157.8454215 168.31578673 -158.67647233 165.62843232 -159.5 162.9375 C-159.73847656 162.18533203 -159.97695312 161.43316406 -160.22265625 160.65820312 C-160.44824219 159.91376953 -160.67382812 159.16933594 -160.90625 158.40234375 C-161.11572266 157.72679443 -161.32519531 157.05124512 -161.54101562 156.35522461 C-162 154 -162 154 -162 147 C-157.38 147 -152.76 147 -148 147 C-146.10686289 151.05672238 -144.73725914 154.89474927 -143.6875 159.25 C-142.31557705 164.59017319 -140.02500661 168.97030524 -137.20703125 173.6875 C-136 176 -136 176 -136 179 C-135.34 179 -134.68 179 -134 179 C-132.5393715 181.64738916 -132 182.89448334 -132 186 C-131.01 186.33 -130.02 186.66 -129 187 C-127.39453125 188.84765625 -127.39453125 188.84765625 -125.8125 191.0625 C-125.28269531 191.79597656 -124.75289063 192.52945313 -124.20703125 193.28515625 C-123.80871094 193.85105469 -123.41039063 194.41695312 -123 195 C-126.96739327 188.90324201 -126.96739327 188.90324201 -131.375 183.125 C-133 181 -133 181 -133 178 C-133.66 178 -134.32 178 -135 178 C-139.56792001 168.32125144 -143.85484322 158.53076964 -146 148 C-145 147 -145 147 -141.4375 146.9375 C-140.303125 146.958125 -139.16875 146.97875 -138 147 C-136.50178941 150.37097383 -136 152.20442119 -136 156 C-135.34 156 -134.68 156 -134 156 C-133.62875 157.258125 -133.2575 158.51625 -132.875 159.8125 C-131.23578988 164.80140035 -128.82863842 169.17965471 -126.20703125 173.71484375 C-125 176 -125 176 -125 178 C-124.34 178 -123.68 178 -123 178 C-121.6328125 179.79296875 -121.6328125 179.79296875 -120.125 182.1875 C-116.32524265 188.05234287 -112.62093854 192.8141947 -107 197 C-106.01 197 -105.02 197 -104 197 C-103.7525 196.4225 -103.505 195.845 -103.25 195.25 C-101.81700012 192.67060021 -100.21575324 190.93878408 -98 189 C-97.34 189 -96.68 189 -96 189 C-95.67 188.01 -95.34 187.02 -95 186 C-92.57687749 183.6221695 -89.96211992 181.65923259 -87 180 C-84 180.125 -84 180.125 -82 181 C-81.505 183.475 -81.505 183.475 -81 186 C-80.01 186.33 -79.02 186.66 -78 187 C-76.96564444 188.64556566 -75.97236487 190.3170608 -75 192 C-74.12124751 193.07666972 -73.22474681 194.1390586 -72.3125 195.1875 C-70 198 -70 198 -70 200 C-68.68 200.66 -67.36 201.32 -66 202 C-66 202.66 -66 203.32 -66 204 C-62.67438135 205.76062164 -61.40826005 206.10784228 -57.6875 205.125 C-56.800625 204.75375 -55.91375 204.3825 -55 204 C-55.33 201.69 -55.66 199.38 -56 197 C-56.66 197 -57.32 197 -58 197 C-59.19287411 193.12315913 -60 190.08378077 -60 186 C-60.80824219 186.10699219 -61.61648437 186.21398437 -62.44921875 186.32421875 C-63.51785156 186.44410156 -64.58648437 186.56398437 -65.6875 186.6875 C-67.27111328 186.87892578 -67.27111328 186.87892578 -68.88671875 187.07421875 C-72.51375509 186.98775239 -74.08972926 186.0917571 -77 184 C-77.763125 183.484375 -78.52625 182.96875 -79.3125 182.4375 C-79.869375 181.963125 -80.42625 181.48875 -81 181 C-81 180.34 -81 179.68 -81 179 C-81.598125 178.896875 -82.19625 178.79375 -82.8125 178.6875 C-85.35030163 177.8899052 -86.21554153 176.93316334 -88 175 C-92.09561668 171.24937047 -95.82947778 171.56444104 -101.17578125 171.41015625 C-105.71133008 170.75146659 -107.28401798 168.54586541 -110 165 C-109 162 -109 162 -107 160 C-107.66386719 159.99742187 -108.32773438 159.99484375 -109.01171875 159.9921875 C-116.0356687 159.68456925 -116.0356687 159.68456925 -118.77734375 157.73828125 C-121.45641795 154.65540456 -122 153.13397902 -122 149 C-121.34 148.67 -120.68 148.34 -120 148 C-123.37899143 144.89706329 -125.60682582 144.64670665 -130.1328125 144.75390625 C-130.77010284 144.76579483 -131.40739319 144.77768341 -132.06399536 144.78993225 C-134.37689078 144.84082991 -136.68794994 144.91942501 -139 145 C-140.40759583 145.0435965 -140.40759583 145.0435965 -141.84362793 145.08807373 C-148.37685798 145.29164065 -154.90793017 145.53522032 -161.43896484 145.79956055 C-164.91614243 145.93915166 -168.3935766 146.07034473 -171.87109375 146.20117188 C-174.07814503 146.28855818 -176.28517713 146.37643033 -178.4921875 146.46484375 C-179.53365936 146.50343002 -180.57513123 146.5420163 -181.64816284 146.58177185 C-182.60070953 146.62173782 -183.55325623 146.6617038 -184.53466797 146.70288086 C-185.37544891 146.73619003 -186.21622986 146.76949921 -187.08248901 146.80381775 C-189.00731777 146.79682919 -189.00731777 146.79682919 -190 148 C-194.27543031 148.45934375 -198.01388174 148.36224752 -202.0625 146.875 C-204 145 -204 145 -204.5 142.125 C-203.9558536 138.72408497 -203.0850781 136.7266406 -201 134 C-200.34 134 -199.68 134 -199 134 C-198.690625 133.01 -198.690625 133.01 -198.375 132 C-196.77697523 128.51340051 -194.69370785 125.77948461 -192.33984375 122.76953125 C-190.94046713 121.03375555 -190.94046713 121.03375555 -190 119 C-189.34 119 -188.68 119 -188 119 C-187.566875 117.824375 -187.566875 117.824375 -187.125 116.625 C-186 114 -186 114 -184 112 C-177.37626643 110.7339295 -170.9466238 111.0567062 -164.23828125 111.3671875 C-161.96295478 111.44970496 -159.68756085 111.53037955 -157.41210938 111.609375 C-153.84930502 111.73748912 -150.28837613 111.87614993 -146.72729492 112.04589844 C-143.27298883 112.20650858 -139.81958766 112.32195479 -136.36328125 112.4296875 C-135.29862137 112.49082733 -134.23396149 112.55196716 -133.13703918 112.61495972 C-127.73081418 112.89310804 -127.73081418 112.89310804 -123.18661499 110.41070557 C-121.59133645 108.29877595 -121.59133645 108.29877595 -120 105 C-120.66 104.67 -121.32 104.34 -122 104 C-122.50155542 100.48911206 -122.12206444 99.18309666 -120.125 96.1875 C-115.76428403 93.13499882 -112.16217863 93.54893585 -107 94 C-106.505 92.02 -106.505 92.02 -106 90 C-106.99 90 -107.98 90 -109 90 C-108.45276317 86.62537285 -107.9451 84.91765 -106 82 C-105.34 82 -104.68 82 -104 82 C-104 81.34 -104 80.68 -104 80 C-103.22914062 79.97421875 -102.45828125 79.9484375 -101.6640625 79.921875 C-100.66117187 79.86515625 -99.65828125 79.8084375 -98.625 79.75 C-97.62726563 79.70359375 -96.62953125 79.6571875 -95.6015625 79.609375 C-92.8473523 79.27839115 -92.8473523 79.27839115 -91.6484375 76.953125 C-91.43445313 76.30859375 -91.22046875 75.6640625 -91 75 C-90.34 75 -89.68 75 -89 75 C-88.505 73.515 -88.505 73.515 -88 72 C-87.34 71.67 -86.68 71.34 -86 71 C-86 70.34 -86 69.68 -86 69 C-87.485 68.01 -87.485 68.01 -89 67 C-89 66.34 -89 65.68 -89 65 C-89.58265625 64.731875 -90.1653125 64.46375 -90.765625 64.1875 C-93.02786601 62.98519009 -94.80576318 61.66174087 -96.75 60 C-97.36359375 59.484375 -97.9771875 58.96875 -98.609375 58.4375 C-100 57 -100 57 -100 55 C-101.485 54.505 -101.485 54.505 -103 54 C-103.66 53.01 -104.32 52.02 -105 51 C-108.44758183 52.44282059 -110.28029268 54.24317911 -112.625 57.125 C-113.70709803 58.45281461 -114.82405239 59.75453824 -116 61 C-116.66 61 -117.32 61 -118 61 C-118.495 62.98 -118.495 62.98 -119 65 C-119.66 65 -120.32 65 -121 65 C-121.26683594 65.71929687 -121.53367187 66.43859375 -121.80859375 67.1796875 C-123.01048302 70.02481555 -124.43210623 72.5051535 -126.0625 75.125 C-127.72679402 77.80251948 -128.99990801 79.99972402 -130 83 C-130.66 83 -131.32 83 -132 83 C-132.18175781 83.88751953 -132.18175781 83.88751953 -132.3671875 84.79296875 C-133.78387505 91.47319544 -133.78387505 91.47319544 -135 94.4375 C-136.31639313 97.81075739 -136.73802173 101.21553716 -137.2421875 104.79296875 C-138 107 -138 107 -139.8984375 108.32421875 C-142.57856194 109.18604315 -144.32268461 108.74369872 -147 108 C-147 106.02 -147 104.04 -147 102 C-147.33 103.98 -147.66 105.96 -148 108 C-150.47923801 108.02685095 -152.9581884 108.04676547 -155.4375 108.0625 C-156.14455078 108.07087891 -156.85160156 108.07925781 -157.58007812 108.08789062 C-159.38693559 108.09653588 -161.19387603 108.05220011 -163 108 C-164 107 -164 107 -164.1875 104.875 C-163.95967687 101.38171205 -163.04856599 98.31370024 -162 95 C-161.67386719 93.93265625 -161.34773438 92.8653125 -161.01171875 91.765625 C-158.33333333 83 -158.33333333 83 -157 79 C-156.34 79 -155.68 79 -155 79 C-154.91878906 77.99839844 -154.83757812 76.99679688 -154.75390625 75.96484375 C-154.12618961 71.57082727 -152.22983768 68.30388015 -149.9375 64.5625 C-149.56044922 63.92634766 -149.18339844 63.29019531 -148.79492188 62.63476562 C-147.87359498 61.08367098 -146.93823407 59.54092657 -146 58 C-145.34 58 -144.68 58 -144 58 C-143.77570313 57.30519531 -143.55140625 56.61039063 -143.3203125 55.89453125 C-141.69631821 52.33423607 -139.42382176 49.6088584 -136.875 46.6875 C-136.37637451 46.11136963 -135.87774902 45.53523926 -135.36401367 44.94165039 C-133.91932183 43.28529061 -132.4623026 41.64081199 -131 40 C-130.35933594 39.27296875 -129.71867187 38.5459375 -129.05859375 37.796875 C-115.91389985 23.79939335 -96.57815052 10.98438185 -78 6 C-76.68 6 -75.36 6 -74 6 C-74 5.34 -74 4.68 -74 4 C-68.61972975 2.80911014 -63.54708616 1.7080481 -58 2 C-58 1.34 -58 0.68 -58 0 C-38.59446674 -2.03914092 -19.38141116 -2.69634376 0 0 Z M-37 11 C-38.87056791 11.2275015 -40.74685958 11.40962811 -42.625 11.5625 C-44.12933594 11.68818359 -44.12933594 11.68818359 -45.6640625 11.81640625 C-46.43492187 11.87699219 -47.20578125 11.93757812 -48 12 C-48 12.33 -48 12.66 -48 13 C-46.42085815 13.029729 -46.42085815 13.029729 -44.80981445 13.06005859 C-40.84166614 13.13708892 -36.87383901 13.22564101 -32.90600586 13.31738281 C-31.20034197 13.35527575 -29.49460889 13.39019155 -27.78881836 13.421875 C-2.39048633 13.89925921 -2.39048633 13.89925921 9.1953125 18.51171875 C11.21314771 19.23618513 11.21314771 19.23618513 14 18 C12.00531118 17.31760646 10.00342734 16.65629516 8 16 C7.03126953 15.63841797 7.03126953 15.63841797 6.04296875 15.26953125 C-0.71706911 12.93725899 -7.49231848 12.27503697 -14.57495117 11.64648438 C-15.37521729 11.57494141 -16.1754834 11.50339844 -17 11.4296875 C-17.721875 11.37022949 -18.44375 11.31077148 -19.1875 11.24951172 C-21 11 -21 11 -23 10 C-24.9981051 9.90350061 -26.9995718 9.87019128 -29 9.875 C-30.0725 9.87242188 -31.145 9.86984375 -32.25 9.8671875 C-34.96182052 9.8127659 -34.96182052 9.8127659 -37 11 Z M-55 13 C-55 13.33 -55 13.66 -55 14 C-52.69 14 -50.38 14 -48 14 C-48 13.67 -48 13.34 -48 13 C-50.31 13 -52.62 13 -55 13 Z M-61 14 C-61 14.33 -61 14.66 -61 15 C-59.35 15 -57.7 15 -56 15 C-56 14.67 -56 14.34 -56 14 C-57.65 14 -59.3 14 -61 14 Z M-66 16 C-62 17 -62 17 -62 17 Z M-54 23 C-55.85266826 23.38233409 -57.70652914 23.75903391 -59.5625 24.125 C-60.83287109 24.37636719 -60.83287109 24.37636719 -62.12890625 24.6328125 C-62.74636719 24.75398438 -63.36382812 24.87515625 -64 25 C-64 25.66 -64 26.32 -64 27 C-65.32 27.33 -66.64 27.66 -68 28 C-66.58680023 29.12935196 -65.16928595 30.25330626 -63.75 31.375 C-62.56664062 32.31472656 -62.56664062 32.31472656 -61.359375 33.2734375 C-58.09625509 35.66134975 -56.08534222 37 -52 37 C-52 37.66 -52 38.32 -52 39 C-36.6432817 43.9423921 -22.35003417 45.27205697 -7 39 C-0.84248046 35.80384595 3.83388014 32.59642368 8 27 C5.21686416 25.14457611 4.15366273 24.67728209 1.0234375 24.18359375 C0.270625 24.05919922 -0.4821875 23.93480469 -1.2578125 23.80664062 C-2.03898437 23.68482422 -2.82015625 23.56300781 -3.625 23.4375 C-11.87718659 22.12281341 -11.87718659 22.12281341 -13 21 C-17.41404695 20.77951999 -21.83392072 20.81421336 -26.25292969 20.81469727 C-28.46309402 20.81253609 -30.6727383 20.79446007 -32.8828125 20.77539062 C-40.18584613 20.74618491 -46.91516838 21.03481129 -54 23 Z M24 23 C25.37268844 25.74537687 27.00932831 26.17020664 29.75 27.5 C31.04164063 28.13421875 31.04164063 28.13421875 32.359375 28.78125 C34.877563 29.94349062 37.4152347 30.99584657 40 32 C36.32993682 27.49583156 31.25091904 25.23209799 26 23 C25.34 23 24.68 23 24 23 Z M12.8125 33.5 C11.884375 34.325 10.95625 35.15 10 36 C10.33 37.65 10.66 39.3 11 41 C11.66 41 12.32 41 13 41 C13.22429687 41.52078125 13.44859375 42.0415625 13.6796875 42.578125 C15.49424109 45.90659609 17.78914175 48.77292576 20.125 51.75 C20.59292969 52.35199219 21.06085938 52.95398438 21.54296875 53.57421875 C22.69225007 55.05186616 23.84571235 56.52626005 25 58 C28.77024649 56.74325117 30.22180196 54.8413389 33 52 C35.30140597 49.96174856 37.64450427 47.97535809 40 46 C39.62317841 43.54291673 39.4083229 42.33157047 37.44140625 40.734375 C33.91243982 38.71134358 33.91243982 38.71134358 30 38 C30 37.34 30 36.68 30 36 C28.23244474 35.15973604 26.46082737 34.32801278 24.6875 33.5 C23.70136719 33.0359375 22.71523437 32.571875 21.69921875 32.09375 C17.65530238 30.45511529 15.96723696 30.69578937 12.8125 33.5 Z M-83.75 33.4375 C-84.73484375 33.91058594 -85.7196875 34.38367187 -86.734375 34.87109375 C-87.85585937 35.42990234 -87.85585937 35.42990234 -89 36 C-89 36.66 -89 37.32 -89 38 C-90.0828125 38.4021875 -90.0828125 38.4021875 -91.1875 38.8125 C-94.00947821 40.00400191 -96.48340424 41.25236406 -99 43 C-99.33 43.99 -99.66 44.98 -100 46 C-99.54109375 46.37511719 -99.0821875 46.75023437 -98.609375 47.13671875 C-95.69419503 49.56807683 -93.15419489 51.80174942 -90.8125 54.8125 C-88.87187168 57.15463763 -87.97085779 57.68169381 -85 58 C-83.51153599 55.09072943 -82.09585176 52.26958309 -81 49.1875 C-80.67 48.465625 -80.34 47.74375 -80 47 C-79.01 46.67 -78.02 46.34 -77 46 C-75.62926214 44.36395804 -74.29944744 42.69321939 -73 41 C-71.68505488 39.64852862 -70.35735142 38.30887458 -69 37 C-74.34436916 31.21026674 -76.54378597 29.92018125 -83.75 33.4375 Z M40 32 C40.99 33.485 40.99 33.485 42 35 C42.66 34.67 43.32 34.34 44 34 C43.67 33.34 43.34 32.68 43 32 C42.01 32 41.02 32 40 32 Z M44 35 C44.33 35.66 44.66 36.32 45 37 C45.66 36.67 46.32 36.34 47 36 C46.01 35.67 45.02 35.34 44 35 Z M-67.39453125 44.34765625 C-68.94380867 46.2213003 -70.48387523 48.09935083 -72 50 C-72.53367188 50.65871094 -73.06734375 51.31742188 -73.6171875 51.99609375 C-76.87629395 56.15510273 -79.144207 60.05121867 -81 65 C-80.01 64.67 -79.02 64.34 -78 64 C-77.67 63.34 -77.34 62.68 -77 62 C-68.585 61.505 -68.585 61.505 -60 61 C-59.319375 58.8653125 -59.319375 58.8653125 -58.625 56.6875 C-57.66055791 53.6626589 -56.79068573 51.6860286 -55 49 C-55 47.68 -55 46.36 -55 45 C-61.30445942 41.42549766 -61.30445942 41.42549766 -67.39453125 44.34765625 Z M-1 43 C-1 43.66 -1 44.32 -1 45 C-2.65 45.33 -4.3 45.66 -6 46 C-5.34 48.97 -4.68 51.94 -4 55 C-3.34 55 -2.68 55 -2 55 C-1.81824219 56.12148438 -1.81824219 56.12148438 -1.6328125 57.265625 C-1.46523437 58.25046875 -1.29765625 59.2353125 -1.125 60.25 C-0.96257812 61.22453125 -0.80015625 62.1990625 -0.6328125 63.203125 C-0.05144152 65.77264117 0.70840265 67.72071056 2 70 C4.64 69.34 7.28 68.68 10 68 C10 67.34 10 66.68 10 66 C10.763125 65.87625 11.52625 65.7525 12.3125 65.625 C15.20267136 65.11897208 15.20267136 65.11897208 18 63 C17.65555119 60.52733235 17.65555119 60.52733235 17 58 C16.34 57.67 15.68 57.34 15 57 C14.67 56.01 14.34 55.02 14 54 C12.35511706 52.31183067 10.68662458 50.64646685 9 49 C8.443125 48.236875 7.88625 47.47375 7.3125 46.6875 C6.879375 46.130625 6.44625 45.57375 6 45 C5.34 45 4.68 45 4 45 C3.67 44.01 3.34 43.02 3 42 C1.63106761 41.94729537 1.63106761 41.94729537 -1 43 Z M-47.27612305 51.33764648 C-49.18629103 54.28770764 -50.72337581 57.24202073 -52.1875 60.4375 C-52.69667969 61.52933594 -53.20585937 62.62117188 -53.73046875 63.74609375 C-54.94971705 66.87112093 -55.58457933 69.68163973 -56 73 C-48.56183596 76.10333997 -41.64806271 76.46527284 -33.68066406 76.39111328 C-31.63538358 76.37508139 -29.59209427 76.39100074 -27.546875 76.41015625 C-19.61286575 76.42096062 -12.52287601 75.6052137 -5 73 C-5.61692039 69.82295835 -6.32070194 66.81086533 -7.375 63.75 C-7.76751953 62.59951172 -7.76751953 62.59951172 -8.16796875 61.42578125 C-8.44253906 60.62527344 -8.71710938 59.82476562 -9 59 C-9.56403107 57.31301113 -10.12659524 55.62553091 -10.6875 53.9375 C-10.93886719 53.18339844 -11.19023437 52.42929687 -11.44921875 51.65234375 C-11.63097656 51.10707031 -11.81273437 50.56179687 -12 50 C-18.55198052 48.78448532 -24.97728921 48.70229896 -31.625 48.625 C-32.8521875 48.58761719 -34.079375 48.55023438 -35.34375 48.51171875 C-36.52195313 48.50011719 -37.70015625 48.48851562 -38.9140625 48.4765625 C-39.9860791 48.45674316 -41.0580957 48.43692383 -42.16259766 48.41650391 C-45.1958341 48.76362446 -45.1958341 48.76362446 -47.27612305 51.33764648 Z M-133 66 C-132 68 -132 68 -132 68 Z M-134 68 C-133 70 -133 70 -133 70 Z M-137 73 C-136 75 -136 75 -136 75 Z M-138 75 C-137 77 -137 77 -137 77 Z M-140 78 C-139 81 -139 81 -139 81 Z M-141 81 C-140 84 -140 84 -140 84 Z M-143 84 C-142.67 85.32 -142.34 86.64 -142 88 C-141.67 86.68 -141.34 85.36 -141 84 C-141.66 84 -142.32 84 -143 84 Z M-144 88 C-144.66 90.97 -145.32 93.94 -146 97 C-145.34 97 -144.68 97 -144 97 C-143.67 94.03 -143.34 91.06 -143 88 C-143.33 88 -143.66 88 -144 88 Z M-55 176 C-53.47876489 184.52813623 -50.02630027 192.37878877 -46 200 C-44.35 200 -42.7 200 -41 200 C-41 199.34 -41 198.68 -41 198 C-40.26362305 198.03029297 -39.52724609 198.06058594 -38.76855469 198.09179688 C-35.42907026 198.22870415 -32.08953636 198.3643657 -28.75 198.5 C-27.01169922 198.57154297 -27.01169922 198.57154297 -25.23828125 198.64453125 C-24.12324219 198.68964844 -23.00820312 198.73476562 -21.859375 198.78125 C-20.83295898 198.82314453 -19.80654297 198.86503906 -18.74902344 198.90820312 C-16.5003942 198.98329057 -14.24988257 199 -12 199 C-11.66226563 198.04738281 -11.32453125 197.09476563 -10.9765625 196.11328125 C-10.52609304 194.8463359 -10.07556933 193.57940984 -9.625 192.3125 C-9.18414062 191.07113281 -8.74328125 189.82976562 -8.2890625 188.55078125 C-7.53112227 186.46300043 -6.73076365 184.3883456 -5.8359375 182.35546875 C-4.9161168 179.76363751 -4.84401656 177.72971016 -5 175 C-19.32670679 172.30320813 -41.4027729 169.20138645 -55 176 Z M2 178 C1.32586789 179.91405367 0.6609668 181.83136026 0 183.75 C-0.37125 184.81734375 -0.7425 185.8846875 -1.125 186.984375 C-2.18577477 190.11692562 -2.18577477 190.11692562 -2 194 C-2.66 194 -3.32 194 -4 194 C-4.66 196.64 -5.32 199.28 -6 202 C-1.05 203.98 -1.05 203.98 4 206 C7.62849776 202.51303938 10.72874747 198.92023409 13.75 194.875 C14.52859375 193.84117187 15.3071875 192.80734375 16.109375 191.7421875 C18.12361656 189.09273053 18.12361656 189.09273053 19 186 C17.56705502 185.15885829 16.12845595 184.32734313 14.6875 183.5 C13.88699219 183.0359375 13.08648437 182.571875 12.26171875 182.09375 C9.9685882 180.78232114 9.9685882 180.78232114 7 181 C7 180.34 7 179.68 7 179 C5.35 178.67 3.7 178.34 2 178 Z M-60 183 C-60 183.99 -60 184.98 -60 186 C-59.34 185.67 -58.68 185.34 -58 185 C-58.66 184.34 -59.32 183.68 -60 183 Z M27 192 C25.1740208 194.41778679 23.38881004 196.84994983 21.625 199.3125 C20.64051944 200.68538891 19.65361687 202.05654493 18.6640625 203.42578125 C18.22529785 204.03848877 17.7865332 204.65119629 17.33447266 205.2824707 C16 207 16 207 14.32568359 208.56323242 C13.88820801 209.03736572 13.45073242 209.51149902 13 210 C13.00156224 212.59117313 13.00156224 212.59117313 14 215 C16.75471394 217.25162602 16.75471394 217.25162602 19.5625 216.9375 C24.38696256 215.62173748 28.60544567 213.35360519 33 211 C33 210.34 33 209.68 33 209 C33.78375 208.7525 34.5675 208.505 35.375 208.25 C38.32317108 206.84610901 38.9024777 205.99324263 40 203 C36.21155103 199.09674955 32.289295 195.3553356 28 192 C27.67 192 27.34 192 27 192 Z M-93 197 C-93 197.66 -93 198.32 -93 199 C-94.98 199.99 -94.98 199.99 -97 201 C-97 201.66 -97 202.32 -97 203 C-97.66 203 -98.32 203 -99 203 C-99.21069785 205.05172564 -99.21069785 205.05172564 -97.82421875 206.44140625 C-94.0373041 209.6769072 -89.38721407 211.69251719 -85 214 C-84.22140625 214.44472656 -83.4428125 214.88945312 -82.640625 215.34765625 C-80.3640914 216.65873274 -80.3640914 216.65873274 -77 218 C-74.0253799 216.86733505 -72.13107111 215.34417822 -70 213 C-70.33 212.01 -70.66 211.02 -71 210 C-71.66 210 -72.32 210 -73 210 C-73.2475 209.44441406 -73.495 208.88882813 -73.75 208.31640625 C-75.22862189 205.57633505 -77.02563245 203.34376045 -79 200.9375 C-81.13049187 198.33313035 -83.13212937 195.80180594 -85 193 C-88.93169105 193 -90.16427228 194.39419615 -93 197 Z M-122 196 C-121.44449305 199.59905908 -120.25112752 200.99909799 -117.4375 203.25 C-116.79683594 203.77078125 -116.15617187 204.2915625 -115.49609375 204.828125 C-115.00238281 205.21484375 -114.50867188 205.6015625 -114 206 C-113.34 205.67 -112.68 205.34 -112 205 C-115.16952847 201.73991357 -118.39937989 198.77762123 -122 196 Z M-55 212 C-55 212.66 -55 213.32 -55 214 C-56.051875 214.3403125 -56.051875 214.3403125 -57.125 214.6875 C-60.69343613 216.31656867 -63.06514511 218.40640731 -66 221 C-65.67 221.66 -65.34 222.32 -65 223 C-62.64400765 223.46751788 -62.64400765 223.46751788 -59.9375 223.625 C-59.01839844 223.69976562 -58.09929687 223.77453125 -57.15234375 223.8515625 C-56.44207031 223.90054688 -55.73179687 223.94953125 -55 224 C-55 224.66 -55 225.32 -55 226 C-40.97811578 227.54951608 -27.76027655 228.43233469 -13.6875 227.125 C-12.82640625 227.04668945 -11.9653125 226.96837891 -11.078125 226.88769531 C-6.44981378 226.41656067 -2.3798454 225.66109692 2 224 C4.32625675 223.30469817 6.66177032 222.65470431 9 222 C-0.01185105 212.11603433 -11.91952194 206.51357886 -25.296875 205.83203125 C-36.3451184 205.76954119 -45.0834478 207.06567693 -55 212 Z M44 211 C43.67 211.99 43.34 212.98 43 214 C40.8125 215 40.8125 215 38 216 C35.99248185 216.98482022 33.99065541 217.98152514 32 219 C32 219.66 32 220.32 32 221 C31.236875 221.12375 30.47375 221.2475 29.6875 221.375 C26.79732864 221.88102792 26.79732864 221.88102792 24 224 C24.33 224.66 24.66 225.32 25 226 C28.91593446 225.21681311 32.36406635 223.60820142 36 222 C36 221.34 36 220.68 36 220 C36.721875 219.731875 37.44375 219.46375 38.1875 219.1875 C41.00947821 217.99599809 43.48340424 216.74763594 46 215 C46.33 214.01 46.66 213.02 47 212 C46.01 211.67 45.02 211.34 44 211 Z M-105 212 C-100.80643037 216.36487949 -100.80643037 216.36487949 -96 220 C-95.01 220 -94.02 220 -93 220 C-93 220.66 -93 221.32 -93 222 C-91.73581754 222.69965443 -90.46334598 223.38434763 -89.1875 224.0625 C-88.47980469 224.44535156 -87.77210937 224.82820312 -87.04296875 225.22265625 C-84.85302199 226.30263511 -84.85302199 226.30263511 -82 225 C-84.17577725 223.24264145 -86.2410298 221.8794851 -88.75 220.625 C-92.09300762 218.95349619 -95.1460778 217.03775121 -98.265625 214.98828125 C-99.95691729 213.83497171 -99.95691729 213.83497171 -102 214 C-102 213.34 -102 212.68 -102 212 C-102.99 212 -103.98 212 -105 212 Z M7.8125 229.875 C1.18084499 231.81781405 -5.25326036 232.85107796 -12.11328125 233.60546875 C-14.89016559 233.6885513 -14.89016559 233.6885513 -16 235 C-17.98757028 235.09983058 -19.9786752 235.13080753 -21.96875 235.1328125 C-23.17917969 235.13410156 -24.38960937 235.13539063 -25.63671875 235.13671875 C-26.91160156 235.13285156 -28.18648437 235.12898437 -29.5 235.125 C-30.77488281 235.12886719 -32.04976562 235.13273438 -33.36328125 235.13671875 C-34.57371094 235.13542969 -35.78414062 235.13414062 -37.03125 235.1328125 C-38.15080078 235.13168457 -39.27035156 235.13055664 -40.42382812 235.12939453 C-43 235 -43 235 -44 234 C-45.41276042 233.72786458 -46.83603144 233.50970753 -48.26171875 233.31640625 C-49.56979492 233.13174805 -49.56979492 233.13174805 -50.90429688 232.94335938 C-52.74006908 232.69214844 -54.57600381 232.44212206 -56.41210938 232.19335938 C-61.16777424 231.51996002 -65.45107374 230.59673699 -70 229 C-72.2875976 229.27640014 -72.2875976 229.27640014 -74 230 C-70.01572426 232.72208152 -66.47043097 233.72634055 -61.75 234.625 C-55.08997429 235.91002571 -55.08997429 235.91002571 -54 237 C-48.66939477 237.82834569 -43.45764004 238.14893631 -38.0625 238.1328125 C-37.33812744 238.13376923 -36.61375488 238.13472595 -35.86743164 238.13571167 C-34.34814364 238.13638693 -32.82885264 238.13457874 -31.30957031 238.13037109 C-29.00579242 238.12501347 -26.70220945 238.13033847 -24.3984375 238.13671875 C-22.91145791 238.13605785 -21.42447844 238.13477645 -19.9375 238.1328125 C-19.26017822 238.13483673 -18.58285645 238.13686096 -17.88500977 238.13894653 C-5.64193853 238.0799624 5.77251735 234.70829918 17 230 C16.505 229.01 16.505 229.01 16 228 C13.07941152 228 10.60070025 229.0117606 7.8125 229.875 Z " fill="#F50000" transform="translate(204,3)"/>
<path d="M0 0 C0.91465027 -0.00428513 1.82930054 -0.00857025 2.77166748 -0.01298523 C4.69786761 -0.01869928 6.6240893 -0.0192505 8.55029297 -0.01489258 C11.46229855 -0.01174263 14.37327661 -0.03519408 17.28515625 -0.06054688 C26.97316192 -0.09333007 35.97528873 0.07260009 45.234375 3.30078125 C46.0178833 3.57317627 46.8013916 3.84557129 47.60864258 4.1262207 C49.49699411 4.81620745 51.36770888 5.5541148 53.234375 6.30078125 C54.224375 6.63078125 55.214375 6.96078125 56.234375 7.30078125 C56.234375 7.96078125 56.234375 8.62078125 56.234375 9.30078125 C56.935625 9.38328125 57.636875 9.46578125 58.359375 9.55078125 C65.99139816 11.54174381 69.88122469 17.08884776 74.234375 23.30078125 C75.58877168 26.0095746 75.29938951 28.31011393 75.234375 31.30078125 C75.894375 31.30078125 76.554375 31.30078125 77.234375 31.30078125 C77.55874331 38.60555569 74.67611775 44.92602245 70.109375 50.55078125 C65.48105642 55.489658 59.65073616 59.1619942 53.234375 61.30078125 C54.29398438 61.36136719 55.35359375 61.42195313 56.4453125 61.484375 C57.83334721 61.56878252 59.22136732 61.65343042 60.609375 61.73828125 C61.30804687 61.77759766 62.00671875 61.81691406 62.7265625 61.85742188 C68.0078125 62.1875 68.0078125 62.1875 70.234375 63.30078125 C70.58980373 70.64630827 69.69252935 77.41437509 68.3894043 84.61474609 C67.5517554 89.25316949 66.91995916 93.85283088 66.49584961 98.54858398 C66.234375 100.30078125 66.234375 100.30078125 65.234375 101.30078125 C64.94718414 103.28405214 64.71877584 105.27589845 64.515625 107.26953125 C64.32419922 109.08517578 64.32419922 109.08517578 64.12890625 110.9375 C63.99871094 112.21238281 63.86851562 113.48726563 63.734375 114.80078125 C63.47796075 117.31160988 63.21775506 119.82205523 62.953125 122.33203125 C62.78200195 124.01135742 62.78200195 124.01135742 62.60742188 125.72460938 C62.234375 128.30078125 62.234375 128.30078125 61.234375 129.30078125 C60.94787959 131.12606453 60.71914109 132.96048727 60.515625 134.796875 C60.32419922 136.47040039 60.32419922 136.47040039 60.12890625 138.17773438 C59.93361328 139.94020508 59.93361328 139.94020508 59.734375 141.73828125 C59.47739119 144.04986339 59.21713906 146.36108526 58.953125 148.671875 C58.78200195 150.21766235 58.78200195 150.21766235 58.60742188 151.79467773 C58.234375 154.30078125 58.234375 154.30078125 57.234375 156.30078125 C57.02902718 157.66138884 56.86846339 159.02897007 56.734375 160.3984375 C56.651875 161.19958984 56.569375 162.00074219 56.484375 162.82617188 C56.31732712 164.52144685 56.15066218 166.21675961 55.984375 167.91210938 C55.3359024 174.19925385 55.3359024 174.19925385 54.234375 175.30078125 C53.94748406 177.19918066 53.71893184 179.1064647 53.515625 181.015625 C53.38800781 182.17642578 53.26039063 183.33722656 53.12890625 184.53320312 C52.99871094 185.75587891 52.86851562 186.97855469 52.734375 188.23828125 C52.47743423 190.64360301 52.21718546 193.04857444 51.953125 195.453125 C51.78200195 197.06175415 51.78200195 197.06175415 51.60742188 198.70288086 C51.234375 201.30078125 51.234375 201.30078125 50.234375 203.30078125 C49.95586445 205.15994855 49.72374281 207.02617418 49.515625 208.89453125 C49.38800781 210.00699219 49.26039063 211.11945313 49.12890625 212.265625 C48.93361328 214.01552734 48.93361328 214.01552734 48.734375 215.80078125 C48.47741408 218.10325288 48.2171637 220.40536054 47.953125 222.70703125 C47.83904297 223.73119141 47.72496094 224.75535156 47.60742188 225.81054688 C47.234375 228.30078125 47.234375 228.30078125 46.234375 230.30078125 C46.01746108 231.67284646 45.84514337 233.05217397 45.69921875 234.43359375 C45.56870117 235.64208984 45.56870117 235.64208984 45.43554688 236.875 C45.34853516 237.71675781 45.26152344 238.55851563 45.171875 239.42578125 C45.08099609 240.27527344 44.99011719 241.12476563 44.89648438 242 C44.6723382 244.09989575 44.45291052 246.20029418 44.234375 248.30078125 C43.574375 248.30078125 42.914375 248.30078125 42.234375 248.30078125 C42.234375 248.96078125 42.234375 249.62078125 42.234375 250.30078125 C1.314375 250.30078125 -39.605625 250.30078125 -81.765625 250.30078125 C-82.6469826 246.77535085 -82.8135311 245.0708244 -82.390625 241.61328125 C-82.30039062 240.82566406 -82.21015625 240.03804687 -82.1171875 239.2265625 C-81.765625 237.30078125 -81.765625 237.30078125 -80.765625 236.30078125 C-80.47843414 234.31751036 -80.25002584 232.32566405 -80.046875 230.33203125 C-79.91925781 229.12160156 -79.79164063 227.91117188 -79.66015625 226.6640625 C-79.52996094 225.38917969 -79.39976562 224.11429688 -79.265625 222.80078125 C-79.00921075 220.28995262 -78.74900506 217.77950727 -78.484375 215.26953125 C-78.37029297 214.14998047 -78.25621094 213.03042969 -78.13867188 211.87695312 C-77.765625 209.30078125 -77.765625 209.30078125 -76.765625 208.30078125 C-76.47873406 206.40238184 -76.25018184 204.4950978 -76.046875 202.5859375 C-75.91925781 201.42513672 -75.79164063 200.26433594 -75.66015625 199.06835938 C-75.52996094 197.84568359 -75.39976562 196.62300781 -75.265625 195.36328125 C-75.00868423 192.95795949 -74.74843546 190.55298806 -74.484375 188.1484375 C-74.37029297 187.07601807 -74.25621094 186.00359863 -74.13867188 184.89868164 C-73.765625 182.30078125 -73.765625 182.30078125 -72.765625 180.30078125 C-72.56027718 178.94017366 -72.39971339 177.57259243 -72.265625 176.203125 C-72.183125 175.40197266 -72.100625 174.60082031 -72.015625 173.77539062 C-71.84857712 172.08011565 -71.68191218 170.38480289 -71.515625 168.68945312 C-70.8671524 162.40230865 -70.8671524 162.40230865 -69.765625 161.30078125 C-69.47843414 159.31751036 -69.25002584 157.32566405 -69.046875 155.33203125 C-68.91925781 154.12160156 -68.79164063 152.91117188 -68.66015625 151.6640625 C-68.52996094 150.38917969 -68.39976562 149.11429688 -68.265625 147.80078125 C-68.00921075 145.28995262 -67.74900506 142.77950727 -67.484375 140.26953125 C-67.37029297 139.14998047 -67.25621094 138.03042969 -67.13867188 136.87695312 C-66.765625 134.30078125 -66.765625 134.30078125 -65.765625 133.30078125 C-65.47836842 131.3292762 -65.24998924 129.34912925 -65.046875 127.3671875 C-64.85544922 125.55831055 -64.85544922 125.55831055 -64.66015625 123.71289062 C-64.52996094 122.44251953 -64.39976562 121.17214844 -64.265625 119.86328125 C-64.00872399 117.36421943 -63.74847835 114.86549844 -63.484375 112.3671875 C-63.31325195 110.69571655 -63.31325195 110.69571655 -63.13867188 108.99047852 C-62.765625 106.30078125 -62.765625 106.30078125 -61.765625 104.30078125 C-61.54871108 102.92871604 -61.37639337 101.54938853 -61.23046875 100.16796875 C-61.14345703 99.36230469 -61.05644531 98.55664062 -60.96679688 97.7265625 C-60.87978516 96.88480469 -60.79277344 96.04304688 -60.703125 95.17578125 C-60.61224609 94.32628906 -60.52136719 93.47679688 -60.42773438 92.6015625 C-60.2035882 90.50166675 -59.98416052 88.40126832 -59.765625 86.30078125 C-59.105625 86.30078125 -58.445625 86.30078125 -57.765625 86.30078125 C-57.78882813 85.718125 -57.81203125 85.13546875 -57.8359375 84.53515625 C-57.98672562 77.68506736 -57.47214188 70.95830389 -55.765625 64.30078125 C-53.16473878 61.69989503 -51.94425387 62.001159 -48.3203125 61.88671875 C-47.24394531 61.84804688 -46.16757812 61.809375 -45.05859375 61.76953125 C-43.93066406 61.73859375 -42.80273438 61.70765625 -41.640625 61.67578125 C-40.50496094 61.63710938 -39.36929688 61.5984375 -38.19921875 61.55859375 C-35.38818544 61.46410524 -32.57716267 61.37854584 -29.765625 61.30078125 C-30.45487061 60.96232178 -31.14411621 60.6238623 -31.85424805 60.27514648 C-33.20836792 59.6052771 -33.20836792 59.6052771 -34.58984375 58.921875 C-35.48533936 58.48029053 -36.38083496 58.03870605 -37.3034668 57.58374023 C-44.83285363 53.66039588 -50.2010828 47.39933556 -52.765625 39.30078125 C-53.75341968 32.04892272 -52.21177492 26.67000476 -48.765625 20.30078125 C-48.105625 20.30078125 -47.445625 20.30078125 -46.765625 20.30078125 C-46.105625 18.98078125 -45.445625 17.66078125 -44.765625 16.30078125 C-44.105625 16.30078125 -43.445625 16.30078125 -42.765625 16.30078125 C-42.435625 15.31078125 -42.105625 14.32078125 -41.765625 13.30078125 C-40.2421875 12.1328125 -40.2421875 12.1328125 -38.390625 11.11328125 C-37.78476562 10.76910156 -37.17890625 10.42492188 -36.5546875 10.0703125 C-34.765625 9.30078125 -34.765625 9.30078125 -31.765625 9.30078125 C-31.765625 8.64078125 -31.765625 7.98078125 -31.765625 7.30078125 C-29.60077343 6.50416452 -27.43364375 5.71373764 -25.265625 4.92578125 C-24.0590625 4.48492188 -22.8525 4.0440625 -21.609375 3.58984375 C-14.25805312 1.06108466 -7.74524903 -0.00819263 0 0 Z " fill="#0032A9" transform="translate(736.765625,-0.30078125)"/>
<path d="M0 0 C0.91606522 -0.00428513 1.83213043 -0.00857025 2.7759552 -0.01298523 C4.70813169 -0.01870607 6.64032971 -0.01924542 8.57250977 -0.01489258 C11.49338608 -0.01174691 14.41323403 -0.03517047 17.33398438 -0.06054688 C27.03887086 -0.09346958 36.05782187 0.06762348 45.33203125 3.30078125 C46.6785376 3.76677734 46.6785376 3.76677734 48.05224609 4.2421875 C58.83990252 8.14983807 70.22748675 14.52452063 75.33203125 25.30078125 C77.38168028 32.19505527 76.55288225 38.63822826 74.33203125 45.30078125 C73.67203125 45.30078125 73.01203125 45.30078125 72.33203125 45.30078125 C71.67203125 46.95078125 71.01203125 48.60078125 70.33203125 50.30078125 C69.67203125 50.30078125 69.01203125 50.30078125 68.33203125 50.30078125 C68.00203125 51.29078125 67.67203125 52.28078125 67.33203125 53.30078125 C64.93359375 55.08984375 64.93359375 55.08984375 61.95703125 56.92578125 C60.97992187 57.53679688 60.0028125 58.1478125 58.99609375 58.77734375 C56.33203125 60.30078125 56.33203125 60.30078125 53.33203125 61.30078125 C54.92144531 61.37425781 54.92144531 61.37425781 56.54296875 61.44921875 C57.93101622 61.52424834 59.31903576 61.5997961 60.70703125 61.67578125 C61.40570312 61.70671875 62.104375 61.73765625 62.82421875 61.76953125 C68.10546875 62.07421875 68.10546875 62.07421875 70.33203125 64.30078125 C70.5625 66.4296875 70.5625 66.4296875 70.51953125 68.86328125 C70.50986328 70.07177734 70.50986328 70.07177734 70.5 71.3046875 C70.33203125 73.30078125 70.33203125 73.30078125 69.33203125 74.30078125 C69.06889748 75.82989336 68.86383567 77.36907349 68.68359375 78.91015625 C68.56677246 79.88331787 68.44995117 80.85647949 68.32958984 81.85913086 C68.20664551 82.91237549 68.08370117 83.96562012 67.95703125 85.05078125 C66.93996881 93.45642869 65.88535085 101.85357619 64.70703125 110.23828125 C64.58408691 111.13708008 64.46114258 112.03587891 64.33447266 112.96191406 C63.45055475 119.18225775 63.45055475 119.18225775 62.33203125 120.30078125 C62.04484039 122.28405214 61.81643209 124.27589845 61.61328125 126.26953125 C61.48566406 127.47996094 61.35804688 128.69039062 61.2265625 129.9375 C61.03126953 131.84982422 61.03126953 131.84982422 60.83203125 133.80078125 C60.575617 136.31160988 60.31541131 138.82205523 60.05078125 141.33203125 C59.8796582 143.01135742 59.8796582 143.01135742 59.70507812 144.72460938 C59.33203125 147.30078125 59.33203125 147.30078125 58.33203125 148.30078125 C58.05734219 149.92375611 57.8403733 151.55657839 57.6484375 153.19140625 C57.52645996 154.20525391 57.40448242 155.21910156 57.27880859 156.26367188 C57.15199707 157.34841797 57.02518555 158.43316406 56.89453125 159.55078125 C55.96076632 167.29909199 54.98070414 175.01807613 53.734375 182.72265625 C53.3537143 185.16184133 53.04823975 187.59814649 52.76953125 190.05078125 C52.33203125 193.30078125 52.33203125 193.30078125 51.33203125 194.30078125 C51.04514031 196.19918066 50.81658809 198.1064647 50.61328125 200.015625 C50.48566406 201.17642578 50.35804688 202.33722656 50.2265625 203.53320312 C50.09636719 204.75587891 49.96617187 205.97855469 49.83203125 207.23828125 C49.57509048 209.64360301 49.31484171 212.04857444 49.05078125 214.453125 C48.8796582 216.06175415 48.8796582 216.06175415 48.70507812 217.70288086 C48.33203125 220.30078125 48.33203125 220.30078125 47.33203125 222.30078125 C47.06670571 223.97887914 46.84573692 225.6641138 46.6484375 227.3515625 C46.52533203 228.36025391 46.40222656 229.36894531 46.27539062 230.40820312 C46.02291174 232.53291003 45.77288321 234.65790963 45.52539062 236.78320312 C45.40099609 237.79576172 45.27660156 238.80832031 45.1484375 239.8515625 C45.03959229 240.77622314 44.93074707 241.70088379 44.81860352 242.65356445 C44.33203125 245.30078125 44.33203125 245.30078125 42.33203125 250.30078125 C1.41203125 250.30078125 -39.50796875 250.30078125 -81.66796875 250.30078125 C-82.65439072 247.34151533 -82.70196518 246.10476912 -82.36328125 243.10546875 C-82.27433594 242.30753906 -82.18539063 241.50960937 -82.09375 240.6875 C-81.99449219 239.85863281 -81.89523437 239.02976563 -81.79296875 238.17578125 C-81.65568359 236.92087891 -81.65568359 236.92087891 -81.515625 235.640625 C-80.80143945 229.43425195 -80.80143945 229.43425195 -79.66796875 228.30078125 C-79.38077789 226.31751036 -79.15236959 224.32566405 -78.94921875 222.33203125 C-78.82160156 221.12160156 -78.69398437 219.91117188 -78.5625 218.6640625 C-78.43230469 217.38917969 -78.30210938 216.11429688 -78.16796875 214.80078125 C-77.9115545 212.28995262 -77.65134881 209.77950727 -77.38671875 207.26953125 C-77.27263672 206.14998047 -77.15855469 205.03042969 -77.04101562 203.87695312 C-76.66796875 201.30078125 -76.66796875 201.30078125 -75.66796875 200.30078125 C-75.33337433 197.50843874 -75.04906444 194.72557825 -74.79296875 191.92578125 C-74.03909815 184.19252798 -73.00667908 176.54754446 -71.72119141 168.88525391 C-70.95391951 164.28263609 -70.36033046 159.70278671 -69.93383789 155.05517578 C-69.66796875 153.30078125 -69.66796875 153.30078125 -68.66796875 152.30078125 C-68.38107781 150.40238184 -68.15252559 148.4950978 -67.94921875 146.5859375 C-67.82160156 145.42513672 -67.69398437 144.26433594 -67.5625 143.06835938 C-67.43230469 141.84568359 -67.30210938 140.62300781 -67.16796875 139.36328125 C-66.91102798 136.95795949 -66.65077921 134.55298806 -66.38671875 132.1484375 C-66.27263672 131.07601807 -66.15855469 130.00359863 -66.04101562 128.89868164 C-65.66796875 126.30078125 -65.66796875 126.30078125 -64.66796875 124.30078125 C-64.31963165 121.46724922 -64.0108484 118.64104988 -63.73046875 115.80078125 C-63.14149308 110.14130073 -62.41637941 104.64211073 -61.171875 99.0859375 C-60.28589752 94.18902319 -59.84891413 89.23013277 -59.36523438 84.27929688 C-58.77009351 78.40290601 -58.77009351 78.40290601 -57.66796875 77.30078125 C-57.12984101 73.68311575 -56.70123985 70.05712521 -56.265625 66.42578125 C-56.06839844 65.39453125 -55.87117188 64.36328125 -55.66796875 63.30078125 C-53.09585553 62.01472464 -51.09889909 62.09034184 -48.22265625 61.984375 C-47.14628906 61.94248047 -46.06992188 61.90058594 -44.9609375 61.85742188 C-43.83300781 61.81810547 -42.70507812 61.77878906 -41.54296875 61.73828125 C-40.40730469 61.69509766 -39.27164062 61.65191406 -38.1015625 61.60742188 C-35.29049107 61.50112085 -32.4793293 61.3990872 -29.66796875 61.30078125 C-31.31796875 60.64078125 -32.96796875 59.98078125 -34.66796875 59.30078125 C-34.66796875 58.64078125 -34.66796875 57.98078125 -34.66796875 57.30078125 C-35.20421875 57.21828125 -35.74046875 57.13578125 -36.29296875 57.05078125 C-43.74626811 54.69710777 -48.09833108 48.93010835 -51.66796875 42.30078125 C-53.34960383 36.71079428 -53.26745266 31.31081552 -51.60546875 25.73828125 C-49.18070264 21.43627686 -46.38684939 17.57979429 -42.66796875 14.30078125 C-41.95511719 14.12289063 -41.24226563 13.945 -40.5078125 13.76171875 C-39.59708984 13.53355469 -39.59708984 13.53355469 -38.66796875 13.30078125 C-38.33796875 12.31078125 -38.00796875 11.32078125 -37.66796875 10.30078125 C-31.20072623 6.45095267 -23.88825595 4.26479019 -16.66796875 2.30078125 C-15.15771118 1.79417969 -15.15771118 1.79417969 -13.61694336 1.27734375 C-9.09129398 -0.01024892 -4.67816007 -0.00491892 0 0 Z " fill="#0032A9" transform="translate(1292.66796875,-0.30078125)"/>
<path d="M0 0 C0 0.66 0 1.32 0 2 C0.59401611 2.08628662 1.18803223 2.17257324 1.80004883 2.26147461 C5.44851465 3.48626754 6.76398423 6.12230944 8.74755859 9.28564453 C10.96096566 14.08265423 10.93444423 18.72774888 10.8125 23.9375 C10.78700073 25.53537354 10.78700073 25.53537354 10.76098633 27.16552734 C10.49113784 33.83206988 9.96482607 39.16546367 5.22265625 44.21875 C4.12244141 45.10046875 4.12244141 45.10046875 3 46 C2.23558594 46.6290625 1.47117187 47.258125 0.68359375 47.90625 C-7.25459848 53.23877608 -15.82626999 53.07225416 -25 52 C-33.24163896 49.73923111 -38.66501934 43.02456719 -43 36 C-45.99754366 29.8621725 -46.05768438 21.99841377 -44.32421875 15.4453125 C-43.63054525 13.5977082 -42.8270243 11.79188598 -42 10 C-41.34 10 -40.68 10 -40 10 C-39.9175 9.4225 -39.835 8.845 -39.75 8.25 C-38.78202213 5.3460664 -37.31305716 3.96259396 -35 2 C-34.34 2 -33.68 2 -33 2 C-33 1.34 -33 0.68 -33 0 C-21.76039759 -5.68323011 -11.23960241 -5.68323011 0 0 Z M-31.25 11.25 C-34.21025681 15.90183213 -36.03707764 19.92365224 -35.9375 25.5 C-34.45543887 31.03302822 -32.86307222 35.75795185 -28 39 C-28 29.43 -28 19.86 -28 10 C-25.091875 9.979375 -22.18375 9.95875 -19.1875 9.9375 C-18.27508545 9.928396 -17.3626709 9.91929199 -16.42260742 9.90991211 C-15.69920166 9.90741455 -14.9757959 9.90491699 -14.23046875 9.90234375 C-13.12288208 9.89448853 -13.12288208 9.89448853 -11.99291992 9.88647461 C-10 10 -10 10 -7 11 C-6.67 11.66 -6.34 12.32 -6 13 C-5.34 13 -4.68 13 -4 13 C-4.11458693 14.43836751 -4.24209116 15.87570966 -4.375 17.3125 C-4.44460938 18.11300781 -4.51421875 18.91351563 -4.5859375 19.73828125 C-5 22 -5 22 -7 25 C-6.69159401 27.15274948 -6.69159401 27.15274948 -6 29 C-5.34 29 -4.68 29 -4 29 C-4.04125 29.94875 -4.0825 30.8975 -4.125 31.875 C-4.34973818 35.10244856 -4.34973818 35.10244856 -2 37 C1.40357641 31.15010304 2.99343886 26.78236653 2 20 C0.29566399 14.50825064 -2.63277357 9.7799466 -7 6 C-15.99722272 2.73000099 -24.61396291 4.61396291 -31.25 11.25 Z M-19 16 C-19 17.65 -19 19.3 -19 21 C-17.35 21 -15.7 21 -14 21 C-14 19.68 -14 18.36 -14 17 C-15.65 16.67 -17.3 16.34 -19 16 Z M-19 28 C-19 31.63 -19 35.26 -19 39 C-21.97 39 -24.94 39 -28 39 C-27.01 39.495 -27.01 39.495 -26 40 C-26 40.66 -26 41.32 -26 42 C-19.35938446 44.40192477 -13.70903982 44.23634661 -7 42 C-7 41.34 -7 40.68 -7 40 C-6.34 39.67 -5.68 39.34 -5 39 C-7.31 38.67 -9.62 38.34 -12 38 C-12.35807292 35.98177083 -12.71614583 33.96354167 -13.07421875 31.9453125 C-14.05230723 29.32291984 -14.05230723 29.32291984 -19 28 Z " fill="#F00000" transform="translate(1437,7)"/>
<path d="M0 0 C15.62878361 -0.02332938 31.25756253 -0.04097937 46.88635921 -0.05181217 C54.14258849 -0.05697505 61.39880696 -0.06401758 68.6550293 -0.07543945 C74.97733856 -0.08538656 81.29964001 -0.09185349 87.62195688 -0.09408849 C90.9715675 -0.09539556 94.32115574 -0.09848113 97.6707592 -0.10573006 C101.40413645 -0.1129362 105.13746658 -0.11399112 108.87084961 -0.11352539 C109.98934296 -0.11712067 111.1078363 -0.12071594 112.26022339 -0.12442017 C113.27129654 -0.1230455 114.28236969 -0.12167084 115.32408142 -0.12025452 C116.65008063 -0.12163721 116.65008063 -0.12163721 118.0028677 -0.12304783 C120 0 120 0 121 1 C121.125 4.5 121.125 4.5 121 8 C119.38013821 9.61986179 117.60767606 9.12601929 115.36877441 9.12698364 C113.86695366 9.13121338 113.86695366 9.13121338 112.33479309 9.13552856 C111.22722153 9.13350433 110.11964996 9.1314801 108.97851562 9.12939453 C107.81930099 9.13114685 106.66008636 9.13289917 105.46574402 9.13470459 C101.61256437 9.13912595 97.75943017 9.13618411 93.90625 9.1328125 C91.24206484 9.13348546 88.57788109 9.1344537 85.91369629 9.13571167 C80.32152814 9.13753322 74.72937318 9.13512745 69.13720703 9.13037109 C62.66327498 9.1249285 56.18937442 9.12669117 49.71544313 9.1321975 C44.16640595 9.13672906 38.61737826 9.13737897 33.06833982 9.13475883 C29.75004692 9.13319629 26.43177214 9.13339174 23.11347961 9.13629532 C19.41612586 9.13882017 15.71883353 9.13498361 12.02148438 9.12939453 C10.91391281 9.13141876 9.80634125 9.13344299 8.66520691 9.13552856 C7.66399307 9.13270874 6.66277924 9.12988892 5.63122559 9.12698364 C4.75589928 9.12660662 3.88057297 9.12622959 2.97872162 9.12584114 C1 9 1 9 0 8 C-0.14115161 5.32941149 -0.04247107 2.67567762 0 0 Z " fill="#EE0000" transform="translate(205,123)"/>
<path d="M0 0 C-10.56 0 -21.12 0 -32 0 C-31.67 -0.66 -31.34 -1.32 -31 -2 C-26.5844221 -2.25488223 -22.16777877 -2.47445991 -17.75 -2.6875 C-16.49574219 -2.76033203 -15.24148438 -2.83316406 -13.94921875 -2.90820312 C-12.74394531 -2.96298828 -11.53867187 -3.01777344 -10.296875 -3.07421875 C-9.18666992 -3.13182373 -8.07646484 -3.18942871 -6.93261719 -3.2487793 C-4 -3 -4 -3 0 0 Z " fill="#00247A" transform="translate(714,64)"/>
<path d="M0 0 C0.66 0 1.32 0 2 0 C0.52278578 3.45201639 -1.43794001 5.64961936 -4.125 8.25 C-4.84945313 8.95640625 -5.57390625 9.6628125 -6.3203125 10.390625 C-6.87460938 10.92171875 -7.42890625 11.4528125 -8 12 C-8.66 11.67 -9.32 11.34 -10 11 C-9.04882866 9.8274869 -8.08882991 8.66212985 -7.125 7.5 C-6.32449219 6.52546875 -6.32449219 6.52546875 -5.5078125 5.53125 C-5.01023437 5.0259375 -4.51265625 4.520625 -4 4 C-3.34 4 -2.68 4 -2 4 C-1.34 2.68 -0.68 1.36 0 0 Z " fill="#DF0000" transform="translate(1065,1)"/>
<path d="M0 0 C0.66 0.99 1.32 1.98 2 3 C1.67 3.99 1.34 4.98 1 6 C0.01 6.33 -0.98 6.66 -2 7 C-2.66 7.66 -3.32 8.32 -4 9 C-3.25 4.25 -3.25 4.25 -1 2 C-0.67 1.34 -0.34 0.68 0 0 Z " fill="#C00000" transform="translate(69,71)"/>
</svg>
