<?xml version="1.0" encoding="UTF-8"?>
<!DOCTYPE svg PUBLIC "-//W3C//DTD SVG 1.1//EN" "http://www.w3.org/Graphics/SVG/1.1/DTD/svg11.dtd">
<!-- Creator: CorelDRAW X5 -->
<svg xmlns="http://www.w3.org/2000/svg" xml:space="preserve" width="150.106mm" height="40.64mm" style="shape-rendering:geometricPrecision; text-rendering:geometricPrecision; image-rendering:optimizeQuality; fill-rule:evenodd; clip-rule:evenodd"
viewBox="0 0 15011 4064"
 xmlns:xlink="http://www.w3.org/1999/xlink">
 <defs>
  <style type="text/css">
   <![CDATA[
    .fil2 {fill:#70161E}
    .fil1 {fill:#921D26}
    .fil8 {fill:#999999}
    .fil4 {fill:#A11F24}
    .fil7 {fill:#B3B3B3}
    .fil0 {fill:#CAC9C9}
    .fil3 {fill:#D5232B}
    .fil6 {fill:#E6E6E6}
    .fil5 {fill:white}
   ]]>
  </style>
 </defs>
 <g id="Layer_x0020_1">
  <metadata id="CorelCorpID_0Corel-Layer"/>
  <path class="fil0" d="M1363 3808c747,0 1352,57 1352,128 0,71 -605,128 -1352,128 -747,0 -1352,-57 -1352,-128 0,-71 605,-128 1352,-128z"/>
  <path class="fil1" d="M1289 12l2559 1086c74,31 108,117 77,191l-1086 2559c-31,74 -117,108 -191,77l-2559 -1086c-74,-31 -108,-117 -77,-191l1086 -2559c31,-74 117,-108 191,-77z"/>
  <path class="fil2" d="M3784 1235c5,13 6,29 0,43l-1051 2476c-12,29 -46,42 -74,30l-2476 -1051c-14,-6 -25,-17 -30,-31l3632 -1467z"/>
  <path class="fil3" d="M1291 237l2394 1016c15,6 21,23 15,38l-1016 2394c-6,15 -23,21 -38,15l-2394 -1016c-15,-6 -21,-23 -15,-38l1016 -2394c6,-15 23,-21 38,-15z"/>
  <path class="fil4" d="M3700 1269c3,7 3,15 0,22l-1016 2394c-6,15 -23,21 -38,15l-2394 -1016c-7,-3 -13,-9 -15,-16l3463 -1399z"/>
  <polygon class="fil5" points="3260,1340 1775,2089 1627,1425 "/>
  <polygon class="fil6" points="713,2624 2199,1875 2346,2539 "/>
  <polygon class="fil7" points="1775,2089 2199,1875 2230,2016 1775,2089 "/>
  <path class="fil3" d="M5894 1098l0 453 -105 0c0,0 -179,-26 -179,52 0,78 78,105 187,192 109,87 279,288 279,518 0,231 -153,527 -632,527 -479,0 -440,-52 -440,-52l0 -510c0,0 161,52 309,52 148,0 174,-48 174,-96 0,-48 -501,-353 -501,-658 0,-121 31,-536 575,-536 214,4 331,57 331,57z"/>
  <polygon class="fil3" points="6252,1042 6804,1042 6804,2841 6252,2841 "/>
  <polygon class="fil3" points="9227,2384 9745,2384 9745,2841 9227,2841 8709,2841 8709,1042 9227,1042 9745,1042 9745,1499 9227,1499 9227,1713 9680,1713 9680,2170 9227,2170 "/>
  <path class="fil3" d="M9981 1042l21 0 499 0 163 0c382,0 695,313 695,695l0 0c0,382 -280,695 -662,695l-163 0 0 410 -553 0 0 -1799zm553 479l0 431 31 0c119,0 216,-97 216,-216l0 0c0,-119 -97,-216 -216,-216l-31 0z"/>
  <path class="fil3" d="M7959 1039c238,0 455,93 616,244l-316 403c-72,-85 -179,-139 -299,-139 -217,0 -392,176 -392,392 0,217 176,392 392,392 120,0 227,-54 299,-139l316 403c-161,151 -377,244 -616,244 -497,0 -900,-403 -900,-900 0,-497 403,-900 900,-900z"/>
  <polygon class="fil3" points="12102,1042 13046,2841 11158,2841 "/>
  <polygon class="fil6" points="11874,2841 11512,2841 12116,1919 12556,2398 "/>
  <polygon class="fil7" points="11867,2299 12116,1919 12209,2021 11867,2299 "/>
  <polygon class="fil5" points="12235,1295 12364,1541 11867,2299 11596,2004 11831,1557 "/>
  <polygon class="fil3" points="13240,1042 13793,1042 14122,1042 14122,1517 13793,1517 13793,2841 13240,2841 13240,1517 12911,1517 12911,1042 "/>
  <path class="fil8" d="M10016 3255l13 -89 -504 0 -13 89 101 0 184 0 219 0zm-538 219l-61 406 520 0 13 -89 -418 0 35 -231 359 0 13 -87 -131 0 -228 0 -101 0zm1118 23l369 -332 -133 0 -438 395 59 -395 -102 0 -108 715 102 0 28 -186 151 -135 233 321 114 0 -277 -381 2 -2zm729 391c178,0 298,-84 291,-223 -11,-217 -374,-146 -381,-296 -4,-76 68,-126 186,-126 72,0 142,19 197,57l37 -84c-60,-39 -145,-60 -233,-60 -175,0 -293,85 -286,222 11,229 374,152 381,301 4,78 -72,121 -187,121 -89,0 -179,-32 -236,-82l-41 82c54,49 162,87 272,87zm929 -723l-265 0 -108 715 102 0 32 -216 191 0c206,0 330,-106 321,-289 -6,-133 -106,-209 -273,-209zm-50 409l-175 0 49 -321 171 0c108,0 172,44 176,130 6,126 -75,191 -221,191zm1194 -200c-6,-133 -106,-209 -274,-209l-266 0 -108 715 103 0 32 -218 191 0 19 0 135 218 108 0 -142 -233c133,-35 208,-131 201,-273zm-323 200l-177 0 49 -321 173 0c109,0 173,44 177,130 6,126 -75,191 -221,191zm1159 -321l13 -89 -504 0 -13 89 101 0 403 0zm-538 219l-61 406 520 0 13 -89 -418 0 35 -231 359 0 13 -87 -359 0 -101 0zm986 414c178,0 298,-84 291,-223 -11,-217 -374,-146 -381,-296 -4,-76 68,-126 186,-126 72,0 142,19 197,57l37 -84c-60,-39 -145,-60 -233,-60 -175,0 -293,85 -286,222 11,229 374,152 381,301 4,78 -72,121 -187,121 -89,0 -179,-32 -236,-82l-41 82c54,49 162,87 272,87z"/>
 </g>
</svg>
