<?xml version="1.0" encoding="UTF-8"?>
<!DOCTYPE svg PUBLIC "-//W3C//DTD SVG 1.1//EN" "http://www.w3.org/Graphics/SVG/1.1/DTD/svg11.dtd">
<!-- Creator: CorelDRAW X5 -->
<svg xmlns="http://www.w3.org/2000/svg" xml:space="preserve" width="136.791mm" height="40.64mm" style="shape-rendering:geometricPrecision; text-rendering:geometricPrecision; image-rendering:optimizeQuality; fill-rule:evenodd; clip-rule:evenodd"
viewBox="0 0 13679 4064"
 xmlns:xlink="http://www.w3.org/1999/xlink">
 <defs>
  <style type="text/css">
   <![CDATA[
    .fil0 {fill:#0061AE}
    .fil1 {fill:#E62129;fill-rule:nonzero}
   ]]>
  </style>
 </defs>
 <g id="__x0023_Layer_x0020_1">
  <metadata id="CorelCorpID_0Corel-Layer"/>
  <path class="fil0" d="M1615 2735c-315,1 -631,2 -946,4 -220,-351 -439,-702 -659,-1052 309,0 618,0 927,0 167,255 335,510 502,765 -80,-179 -161,-357 -241,-536 179,-280 358,-560 536,-839 62,-97 145,-167 265,-167 258,0 516,0 774,0 -386,609 -772,1218 -1158,1827zm1338 0l0 0c-315,1 -631,2 -946,4 -62,-99 -124,-197 -185,-296l531 -691 424 699c-80,-179 -161,-357 -241,-536 179,-280 504,-795 683,-1075 62,-97 145,-167 265,-167 258,0 516,0 774,0 -386,609 -919,1453 -1305,2062zm-2023 -1180l0 0c-310,0 -620,0 -930,0 189,-549 541,-1024 1201,-1312 982,-428 2058,-267 2952,286 -790,-249 -1541,-216 -2100,-20 -493,173 -873,515 -1123,1046zm4424 1186l0 0 -685 0 -18 -296 -522 0 -196 296 -696 0 927 -1448c79,-123 164,-176 311,-176l804 0 75 1624zm-718 -652l0 0 -290 0 238 -397 36 0 16 397zm4867 652l0 0 -685 0 -18 -296 -522 0 -196 296 -696 0 927 -1448c79,-123 164,-176 311,-176l804 0 75 1624zm-718 -652l0 0 -290 0 238 -397 36 0 16 397zm4867 652l0 0 -685 0 -18 -296 -522 0 -196 296 -696 0 927 -1448c79,-123 164,-176 311,-176l804 0 75 1624zm-718 -652l0 0 -290 0 238 -397 36 0 16 397zm-6981 -969l0 0 721 0 -155 549 359 0 155 -549 721 0 -458 1621 -721 0 158 -559 -359 0 -158 559 -721 0 458 -1621zm4166 0l0 0 708 0 -9 31 10 -34 161 761 213 -758 708 0 -455 1621 -703 0 -2 7 -1 -7 -2 0 1 -4 -161 -761 -215 765 -708 0 455 -1621z"/>
  <path class="fil1" d="M8907 3817l680 0 42 -197 -389 0 24 -112 364 0 42 -197 -364 0 25 -116 381 0 42 -197 -672 0 -175 820zm846 -612l0 0 116 283 -260 329 285 0 137 -197 49 197 297 0 -120 -334 220 -278 -274 0 -117 183 -39 -183 -294 0zm613 858l0 0 280 0 69 -325 2 0c14,33 34,57 60,71 25,14 57,22 95,22 44,0 83,-8 118,-25 35,-17 65,-39 91,-68 26,-28 48,-61 65,-99 17,-38 30,-77 39,-119 10,-45 14,-87 13,-127 -1,-40 -8,-75 -21,-105 -14,-30 -35,-54 -63,-72 -28,-18 -66,-26 -113,-26 -46,0 -86,9 -119,28 -34,19 -65,51 -94,97l-2 0 24 -112 -260 0 -183 858zm389 -550l0 0c3,-14 7,-29 11,-43 5,-15 11,-28 18,-41 7,-12 17,-22 27,-30 11,-8 24,-12 39,-12 16,0 27,4 35,12 8,8 12,18 15,31 2,13 2,27 1,42 -1,16 -4,32 -8,48 -4,16 -8,32 -12,48 -5,15 -11,29 -19,41 -8,12 -17,21 -27,28 -10,7 -23,11 -38,11 -16,0 -27,-4 -35,-11 -8,-7 -13,-17 -15,-29 -3,-13 -3,-27 -1,-43 2,-16 5,-33 9,-51zm576 -309l0 0 -131 612 280 0 47 -222c5,-23 13,-44 25,-63 12,-20 26,-37 42,-52 16,-15 34,-26 53,-35 19,-8 38,-12 58,-12 13,0 24,1 36,2 11,2 20,4 26,7l52 -245c-12,-4 -27,-6 -44,-6 -22,0 -43,4 -62,12 -19,8 -38,19 -55,32 -17,14 -34,30 -49,48 -15,18 -30,39 -42,60l-2 0 30 -139 -262 0zm720 248l0 0c2,-12 5,-25 10,-39 5,-14 11,-27 20,-39 8,-12 18,-22 30,-31 12,-8 26,-12 42,-12 16,0 27,4 35,12 8,8 12,18 15,31 2,12 3,25 1,39 -2,14 -4,27 -6,39l-146 0zm360 129l0 0 8 -36c11,-52 16,-99 14,-143 -1,-43 -11,-81 -28,-112 -17,-31 -43,-56 -78,-73 -35,-18 -80,-26 -137,-26 -118,0 -212,26 -284,77 -72,51 -119,129 -141,232 -23,106 -10,188 39,245 49,57 132,86 249,86 49,0 96,-3 141,-8 45,-5 88,-14 128,-27l34 -159c-25,13 -55,22 -89,29 -34,7 -71,10 -109,10 -21,0 -40,-1 -57,-4 -18,-3 -33,-8 -45,-15 -13,-7 -22,-17 -28,-29 -6,-12 -7,-28 -4,-46l387 0zm9 214l0 0c38,11 76,20 115,26 39,6 79,9 120,9 33,0 69,-3 108,-10 39,-7 76,-18 111,-35 35,-17 67,-40 94,-68 27,-29 45,-65 55,-109 8,-38 7,-69 -4,-92 -11,-23 -27,-41 -49,-53 -21,-13 -45,-22 -72,-28 -27,-5 -52,-10 -75,-14 -23,-4 -42,-7 -57,-12 -15,-4 -21,-12 -19,-23 2,-9 6,-17 13,-22 7,-5 15,-10 25,-13 10,-3 21,-5 32,-6 12,-1 23,-1 35,-1 32,0 62,3 91,9 29,6 57,15 84,26l35 -164c-33,-8 -66,-14 -100,-19 -33,-5 -68,-7 -103,-7 -35,0 -72,3 -111,8 -39,5 -76,15 -111,30 -35,15 -66,36 -93,63 -27,27 -45,62 -54,106 -8,39 -7,71 4,95 11,24 27,42 48,56 21,13 45,23 72,29 27,6 52,12 75,16 23,4 42,9 57,15 15,6 21,15 18,28 -2,8 -6,14 -14,19 -7,5 -16,9 -27,12 -11,3 -22,5 -34,6 -12,1 -24,2 -36,2 -36,0 -72,-5 -107,-15 -35,-10 -64,-23 -87,-41l-37 175zm618 0l0 0c38,11 76,20 115,26 39,6 79,9 120,9 33,0 69,-3 108,-10 39,-7 76,-18 111,-35 35,-17 67,-40 94,-68 27,-29 45,-65 55,-109 8,-38 7,-69 -4,-92 -11,-23 -27,-41 -49,-53 -21,-13 -45,-22 -72,-28 -27,-5 -52,-10 -75,-14 -23,-4 -42,-7 -57,-12 -15,-4 -21,-12 -19,-23 2,-9 6,-17 13,-22 7,-5 15,-10 25,-13 10,-3 21,-5 32,-6 12,-1 23,-1 35,-1 32,0 62,3 91,9 29,6 57,15 84,26l35 -164c-33,-8 -66,-14 -100,-19 -33,-5 -68,-7 -103,-7 -35,0 -72,3 -111,8 -39,5 -76,15 -111,30 -35,15 -66,36 -93,63 -27,27 -45,62 -54,106 -8,39 -7,71 4,95 11,24 27,42 48,56 21,13 45,23 72,29 27,6 52,12 75,16 23,4 42,9 57,15 15,6 21,15 18,28 -2,8 -6,14 -14,19 -7,5 -16,9 -27,12 -11,3 -22,5 -34,6 -12,1 -24,2 -36,2 -36,0 -72,-5 -107,-15 -35,-10 -64,-23 -87,-41l-37 175z"/>
 </g>
</svg>
