<?xml version="1.0" encoding="UTF-8"?>
<!DOCTYPE svg PUBLIC "-//W3C//DTD SVG 1.1//EN" "http://www.w3.org/Graphics/SVG/1.1/DTD/svg11.dtd">
<!-- Creator: CorelDRAW 2020 (64-Bit) -->
<svg xmlns="http://www.w3.org/2000/svg" xml:space="preserve" width="150.706mm" height="27.3644mm" version="1.1" style="shape-rendering:geometricPrecision; text-rendering:geometricPrecision; image-rendering:optimizeQuality; fill-rule:evenodd; clip-rule:evenodd"
viewBox="0 0 5734.75 1041.29"
 xmlns:xlink="http://www.w3.org/1999/xlink"
 xmlns:xodm="http://www.corel.com/coreldraw/odm/2003">
 <defs>
  <style type="text/css">
   <![CDATA[
    .fil1 {fill:#4A9E41}
    .fil2 {fill:#EE7A1D;fill-rule:nonzero}
    .fil0 {fill:#4A9E41;fill-rule:nonzero}
   ]]>
  </style>
 </defs>
 <g id="Layer_x0020_1">
  <metadata id="CorelCorpID_0Corel-Layer"/>
  <g id="_2675072619328">
   <g>
    <path class="fil0" d="M98.61 307.58l233.61 0 -332.23 367.44 0 123.26 536.49 0 0 -135 -339.26 0 329.87 -353.36 0 -132.66 -508.31 0 0 50.48c0,45.79 34.04,79.84 79.83,79.84z"/>
    <path class="fil1" d="M618.68 177.27l0 621.02 156.14 0 0 -545.88c0,-50.48 -24.66,-75.14 -75.14,-75.14l-81 0z"/>
    <path class="fil0" d="M927.42 908.64l0 127.96c4.7,3.51 25.83,4.69 65.74,4.69 129.14,0 166.7,-35.22 204.27,-137.35l245.36 -726.67 -109.18 0c-39.91,0 -64.56,18.79 -73.96,55.18l-108 375.66 -123.27 -430.84 -177.26 0 211.31 606.93c24.65,82.17 -5.87,124.44 -91.57,124.44l-43.44 0z"/>
    <path class="fil0" d="M1699.88 683.24c-49.3,0 -75.13,-23.48 -78.65,-72.79 0,-45.78 31.69,-75.13 93.91,-86.87 45.78,-9.39 88.05,-22.31 124.44,-37.57l0 57.52c0,88.04 -52.82,139.7 -139.7,139.7zm36.39 -387.41c64.56,0 97.44,17.62 100.96,52.83 0,34.04 -34.04,54 -100.96,62.22 -157.31,15.26 -265.31,55.17 -268.83,204.27 0,137.34 103.31,206.61 252.4,194.87 167.87,-11.74 271.17,-88.05 271.17,-259.44l0 -211.31c-3.52,-115.04 -90.39,-171.39 -261.78,-171.39 -143.23,0 -224.23,56.35 -243.01,171.39l156.13 0c8.22,-29.35 38.74,-43.44 93.91,-43.44z"/>
    <path class="fil0" d="M2352.6 307.58c84.52,0 127.95,58.7 131.48,178.43 0,125.62 -44.61,189.01 -133.83,189.01 -89.22,0 -131.48,-63.4 -130.31,-189.01 4.7,-119.74 48.13,-178.43 132.66,-178.43zm208.96 -307.58l-77.48 0 0 264.14c-39.91,-64.56 -99.78,-96.26 -177.26,-96.26 -165.52,5.87 -247.7,113.87 -247.7,325.18 0,206.61 96.26,311.09 288.79,314.62 193.7,1.17 291.14,-91.57 291.14,-278.22l0 -450.79c0,-42.27 -35.22,-78.66 -77.48,-78.66z"/>
    <path class="fil2" d="M2865.2 78.66c0,-51.66 -25.75,-78.66 -77.27,-78.66l-78.46 0 0 529.45c0,186.66 97.19,279.39 290.39,278.22 192.03,-3.52 288.04,-108 288.04,-314.62 0,-211.31 -81.97,-319.31 -247.06,-325.18 -77.28,0 -135.82,31.69 -175.64,96.26l0 -185.48zm132.32 228.92c84.3,0 127.63,58.7 131.13,178.43 0,125.62 -44.49,189.01 -133.47,189.01 -88.99,0 -131.15,-63.4 -129.98,-189.01 4.69,-119.74 48.01,-178.43 132.32,-178.43z"/>
    <path class="fil2" d="M3636.9 167.88c-187.83,0 -281.75,106.83 -281.75,322.83 0,213.66 93.91,321.66 281.75,321.66 187.82,0 282.91,-108 282.91,-321.66 0,-216 -95.09,-322.83 -282.91,-322.83zm0 137.34c79.83,0 119.74,59.87 119.74,180.79 -1.17,123.27 -41.09,186.66 -120.91,186.66 -79.83,0 -120.92,-61.04 -122.09,-181.96 0,-123.27 41.09,-185.49 123.27,-185.49z"/>
    <path class="fil2" d="M4272 167.88c-187.84,0 -281.75,106.83 -281.75,322.83 0,213.66 93.91,321.66 281.75,321.66 187.82,0 282.91,-108 282.91,-321.66 0,-216 -95.09,-322.83 -282.91,-322.83zm0 137.34c79.83,0 119.74,59.87 119.74,180.79 -1.17,123.27 -41.09,186.66 -120.92,186.66 -79.83,0 -120.91,-61.04 -122.09,-181.96 0,-123.27 41.09,-185.49 123.27,-185.49z"/>
    <path class="fil2" d="M4711.06 0l-81.01 0 0 798.28 156.13 0 0 -226.58c0,-16.43 8.23,-26.99 24.66,-30.51 19.95,0 39.92,17.61 59.87,52.82l110.35 204.27 187.82 0 -217.17 -368.62 214.83 -230.09 -187.82 0 -192.54 220.7 0 -343.96c0,-41.1 -34.04,-76.31 -75.12,-76.31z"/>
    <path class="fil2" d="M5344.99 594.02l-159.65 0c0,71.61 23.48,125.62 70.43,160.83 42.27,36.39 108.01,55.17 194.88,55.17 164.35,0 284.09,-56.35 284.09,-208.96 0,-42.27 -14.09,-79.84 -43.44,-110.35 -34.04,-31.7 -103.31,-58.7 -208.95,-79.83 -81.01,-15.26 -120.92,-39.92 -120.92,-71.61 0,-31.69 30.52,-48.13 91.57,-48.13 51.65,0 83.35,15.26 93.91,42.26 9.39,24.65 32.87,37.57 69.27,38.74l98.6 0c-3.51,-64.56 -28.17,-115.04 -73.96,-151.44 -46.95,-35.22 -110.34,-52.82 -190.17,-52.82 -142.05,2.34 -247.71,65.73 -247.71,199.56 1.18,97.43 71.61,158.49 208.97,183.14 106.83,18.78 160.82,44.61 160.82,76.3 0,39.91 -32.87,58.7 -98.6,58.7 -76.31,0 -125.62,-23.48 -129.14,-91.57z"/>
   </g>
   <path class="fil0" d="M611.16 12.07l0 121.99 156.01 0 0 -45.75c1.17,-50.44 -23.46,-76.24 -75.07,-76.24l-80.94 0z"/>
  </g>
 </g>
</svg>
